<svg width="40" height="41" viewBox="0 0 40 41" fill="none" xmlns="http://www.w3.org/2000/svg">
<path d="M25.9879 5.54531C24.4676 3.90391 22.3442 3 20.0004 3C17.6442 3 15.5137 3.89844 14.0004 5.52969C12.4708 7.17891 11.7254 9.42031 11.9004 11.8406C12.2473 16.6156 15.8809 20.5 20.0004 20.5C24.12 20.5 27.7473 16.6164 28.0997 11.8422C28.277 9.44375 27.527 7.20703 25.9879 5.54531ZM33.7504 38H6.25045C5.8905 38.0047 5.53403 37.9291 5.20698 37.7786C4.87993 37.6282 4.59053 37.4068 4.35982 37.1305C3.85201 36.5234 3.64732 35.6945 3.79888 34.8563C4.45826 31.1984 6.51607 28.1258 9.75045 25.9688C12.6239 24.0539 16.2637 23 20.0004 23C23.7372 23 27.377 24.0547 30.2505 25.9688C33.4848 28.125 35.5426 31.1977 36.202 34.8555C36.3536 35.6937 36.1489 36.5227 35.6411 37.1297C35.4104 37.4062 35.1211 37.6277 34.794 37.7783C34.467 37.9288 34.1105 38.0046 33.7504 38Z" fill="black"/>
</svg>
