<svg width="40" height="41" viewBox="0 0 40 41" fill="none" xmlns="http://www.w3.org/2000/svg">
<path d="M25.7946 21.9834L28.3196 36.1934C28.3479 36.3607 28.3244 36.5327 28.2523 36.6863C28.1802 36.8399 28.0629 36.9679 27.9161 37.0531C27.7694 37.1382 27.6001 37.1766 27.4309 37.1629C27.2618 37.1493 27.1008 37.0843 26.9696 36.9767L21.0029 32.4984C20.7149 32.2832 20.365 32.1669 20.0054 32.1669C19.6459 32.1669 19.296 32.2832 19.0079 32.4984L13.0313 36.9751C12.9001 37.0825 12.7394 37.1473 12.5704 37.161C12.4015 37.1746 12.2324 37.1364 12.0857 37.0515C11.939 36.9666 11.8217 36.8389 11.7495 36.6856C11.6772 36.5323 11.6534 36.3606 11.6813 36.1934L14.2046 21.9834" stroke="black" stroke-width="2" stroke-linecap="round" stroke-linejoin="round"/>
<path d="M20 23.8335C25.5228 23.8335 30 19.3563 30 13.8335C30 8.31065 25.5228 3.8335 20 3.8335C14.4772 3.8335 10 8.31065 10 13.8335C10 19.3563 14.4772 23.8335 20 23.8335Z" stroke="black" stroke-width="2" stroke-linecap="round" stroke-linejoin="round"/>
</svg>
