<svg width="40" height="41" viewBox="0 0 40 41" fill="none" xmlns="http://www.w3.org/2000/svg">
<path d="M19.9997 3.8335C29.2047 3.8335 36.6663 11.2952 36.6663 20.5002C36.6663 29.7052 29.2047 37.1668 19.9997 37.1668C10.7947 37.1668 3.33301 29.7052 3.33301 20.5002C3.33301 11.2952 10.7947 3.8335 19.9997 3.8335ZM19.9997 7.16683C16.4635 7.16683 13.0721 8.57159 10.5716 11.0721C8.0711 13.5726 6.66634 16.9639 6.66634 20.5002C6.66634 24.0364 8.0711 27.4278 10.5716 29.9283C13.0721 32.4287 16.4635 33.8335 19.9997 33.8335C23.5359 33.8335 26.9273 32.4287 29.4278 29.9283C31.9283 27.4278 33.333 24.0364 33.333 20.5002C33.333 16.9639 31.9283 13.5726 29.4278 11.0721C26.9273 8.57159 23.5359 7.16683 19.9997 7.16683ZM19.9997 10.5002C20.4079 10.5002 20.8019 10.6501 21.107 10.9214C21.412 11.1926 21.6069 11.5664 21.6547 11.9718L21.6663 12.1668V19.8102L26.178 24.3218C26.4769 24.6218 26.6505 25.0242 26.6634 25.4475C26.6763 25.8707 26.5277 26.283 26.2476 26.6006C25.9675 26.9182 25.5771 27.1173 25.1556 27.1575C24.734 27.1977 24.313 27.0758 23.978 26.8168L23.8213 26.6785L18.8213 21.6785C18.5623 21.4192 18.3959 21.0818 18.348 20.7185L18.333 20.5002V12.1668C18.333 11.7248 18.5086 11.3009 18.8212 10.9883C19.1337 10.6758 19.5576 10.5002 19.9997 10.5002Z" fill="black"/>
</svg>
