<svg width="40" height="41" viewBox="0 0 40 41" fill="none" xmlns="http://www.w3.org/2000/svg">
<path d="M31.6663 7.1665H8.33301C7.00693 7.1665 5.73516 7.69329 4.79747 8.63097C3.85979 9.56865 3.33301 10.8404 3.33301 12.1665V28.8332C3.33301 30.1593 3.85979 31.431 4.79747 32.3687C5.73516 33.3064 7.00693 33.8332 8.33301 33.8332H31.6663C32.9924 33.8332 34.2642 33.3064 35.2019 32.3687C36.1396 31.431 36.6663 30.1593 36.6663 28.8332V12.1665C36.6663 10.8404 36.1396 9.56865 35.2019 8.63097C34.2642 7.69329 32.9924 7.1665 31.6663 7.1665ZM30.983 10.4998L21.183 20.2998C21.0281 20.4561 20.8437 20.58 20.6406 20.6647C20.4375 20.7493 20.2197 20.7928 19.9997 20.7928C19.7797 20.7928 19.5618 20.7493 19.3587 20.6647C19.1556 20.58 18.9713 20.4561 18.8163 20.2998L9.01634 10.4998H30.983ZM33.333 28.8332C33.333 29.2752 33.1574 29.6991 32.8449 30.0117C32.5323 30.3242 32.1084 30.4998 31.6663 30.4998H8.33301C7.89098 30.4998 7.46706 30.3242 7.1545 30.0117C6.84194 29.6991 6.66634 29.2752 6.66634 28.8332V12.8498L16.4663 22.6498C17.4038 23.5862 18.6747 24.1121 19.9997 24.1121C21.3247 24.1121 22.5955 23.5862 23.533 22.6498L33.333 12.8498V28.8332Z" fill="black"/>
</svg>
