<svg width="735" height="874" viewBox="0 0 735 874" fill="none" xmlns="http://www.w3.org/2000/svg">
<g opacity="0.3" filter="url(#filter0_f_213_6624)">
<path d="M434.716 -251.816C433.684 -142.168 407.421 -33.8308 357.426 67.0093C307.432 167.85 234.684 259.218 143.338 335.898C51.9911 412.578 -56.1655 473.068 -174.957 513.915C-293.748 554.761 -420.848 575.163 -549 573.957L-545.429 194.559C-475.509 195.217 -406.162 184.086 -341.348 161.8C-276.535 139.514 -217.524 106.51 -167.684 64.6724C-117.845 22.8351 -78.1533 -27.0163 -50.8757 -82.0355C-23.5982 -137.055 -9.26879 -196.164 -8.70573 -255.989L434.716 -251.816Z" fill="#B8E4C9" fill-opacity="0.9"/>
</g>
<defs>
<filter id="filter0_f_213_6624" x="-849" y="-555.989" width="1583.72" height="1430" filterUnits="userSpaceOnUse" color-interpolation-filters="sRGB">
<feFlood flood-opacity="0" result="BackgroundImageFix"/>
<feBlend mode="normal" in="SourceGraphic" in2="BackgroundImageFix" result="shape"/>
<feGaussianBlur stdDeviation="150" result="effect1_foregroundBlur_213_6624"/>
</filter>
</defs>
</svg>
