<svg width="34" height="37" viewBox="0 0 34 37" fill="none" xmlns="http://www.w3.org/2000/svg">
<path d="M16.9997 0.435791C26.2047 0.435791 33.6663 7.89746 33.6663 17.1025C33.6663 26.3075 26.2047 33.7691 16.9997 33.7691C7.79468 33.7691 0.333008 26.3075 0.333008 17.1025C0.333008 7.89746 7.79468 0.435791 16.9997 0.435791ZM16.9997 3.76912C13.4635 3.76912 10.0721 5.17388 7.57158 7.67437C5.0711 10.1749 3.66634 13.5662 3.66634 17.1025C3.66634 20.6387 5.0711 24.0301 7.57158 26.5306C10.0721 29.031 13.4635 30.4358 16.9997 30.4358C20.5359 30.4358 23.9273 29.031 26.4278 26.5306C28.9283 24.0301 30.333 20.6387 30.333 17.1025C30.333 13.5662 28.9283 10.1749 26.4278 7.67437C23.9273 5.17388 20.5359 3.76912 16.9997 3.76912ZM16.9997 7.10246C17.4079 7.10251 17.8019 7.25238 18.107 7.52365C18.412 7.79492 18.6069 8.16871 18.6547 8.57412L18.6663 8.76912V16.4125L23.178 20.9241C23.4769 21.2241 23.6505 21.6265 23.6634 22.0498C23.6763 22.473 23.5277 22.8853 23.2476 23.2029C22.9675 23.5205 22.5771 23.7196 22.1556 23.7598C21.734 23.7999 21.313 23.6781 20.978 23.4191L20.8213 23.2808L15.8213 18.2808C15.5623 18.0215 15.3959 17.6841 15.348 17.3208L15.333 17.1025V8.76912C15.333 8.3271 15.5086 7.90317 15.8212 7.59061C16.1337 7.27805 16.5576 7.10246 16.9997 7.10246Z" fill="black"/>
</svg>
