<svg width="22" height="36" viewBox="0 0 22 36" fill="none" xmlns="http://www.w3.org/2000/svg">
<path d="M16.7946 19.4834L19.3196 33.6934C19.3479 33.8607 19.3244 34.0327 19.2523 34.1863C19.1802 34.3399 19.0629 34.4679 18.9161 34.5531C18.7694 34.6382 18.6001 34.6766 18.4309 34.6629C18.2618 34.6493 18.1008 34.5843 17.9696 34.4767L12.0029 29.9984C11.7149 29.7832 11.365 29.6669 11.0054 29.6669C10.6459 29.6669 10.296 29.7832 10.0079 29.9984L4.03125 34.4751C3.90012 34.5825 3.73936 34.6473 3.57041 34.661C3.40147 34.6746 3.23237 34.6364 3.08569 34.5515C2.93901 34.4666 2.82171 34.3389 2.74945 34.1856C2.67719 34.0323 2.6534 33.8606 2.68125 33.6934L5.20459 19.4834" stroke="black" stroke-width="2" stroke-linecap="round" stroke-linejoin="round"/>
<path d="M11 21.3335C16.5228 21.3335 21 16.8563 21 11.3335C21 5.81065 16.5228 1.3335 11 1.3335C5.47715 1.3335 1 5.81065 1 11.3335C1 16.8563 5.47715 21.3335 11 21.3335Z" stroke="black" stroke-width="2" stroke-linecap="round" stroke-linejoin="round"/>
</svg>
