<svg width="40" height="40" viewBox="0 0 40 40" fill="none" xmlns="http://www.w3.org/2000/svg">
<path d="M31.6663 6.6665H8.33301C7.00693 6.6665 5.73516 7.19329 4.79747 8.13097C3.85979 9.06865 3.33301 10.3404 3.33301 11.6665V28.3332C3.33301 29.6593 3.85979 30.931 4.79747 31.8687C5.73516 32.8064 7.00693 33.3332 8.33301 33.3332H31.6663C32.9924 33.3332 34.2642 32.8064 35.2019 31.8687C36.1396 30.931 36.6663 29.6593 36.6663 28.3332V11.6665C36.6663 10.3404 36.1396 9.06865 35.2019 8.13097C34.2642 7.19329 32.9924 6.6665 31.6663 6.6665ZM30.983 9.99984L21.183 19.7998C21.0281 19.9561 20.8437 20.08 20.6406 20.1647C20.4375 20.2493 20.2197 20.2928 19.9997 20.2928C19.7797 20.2928 19.5618 20.2493 19.3587 20.1647C19.1556 20.08 18.9713 19.9561 18.8163 19.7998L9.01634 9.99984H30.983ZM33.333 28.3332C33.333 28.7752 33.1574 29.1991 32.8449 29.5117C32.5323 29.8242 32.1084 29.9998 31.6663 29.9998H8.33301C7.89098 29.9998 7.46706 29.8242 7.1545 29.5117C6.84194 29.1991 6.66634 28.7752 6.66634 28.3332V12.3498L16.4663 22.1498C17.4038 23.0862 18.6747 23.6121 19.9997 23.6121C21.3247 23.6121 22.5955 23.0862 23.533 22.1498L33.333 12.3498V28.3332Z" fill="black"/>
</svg>
