<svg width="40" height="41" viewBox="0 0 40 41" fill="none" xmlns="http://www.w3.org/2000/svg">
<path d="M14.7435 18.436C16.5844 18.436 18.0768 16.9436 18.0768 15.1026C18.0768 13.2617 16.5844 11.7693 14.7435 11.7693C12.9025 11.7693 11.4102 13.2617 11.4102 15.1026C11.4102 16.9436 12.9025 18.436 14.7435 18.436Z" stroke="black" stroke-width="1.5"/>
<path d="M21.4105 25.1026C21.4105 26.9443 21.4105 28.436 14.7438 28.436C8.07715 28.436 8.07715 26.9443 8.07715 25.1026C8.07715 23.261 11.0605 21.7693 14.7438 21.7693C18.4271 21.7693 21.4105 23.261 21.4105 25.1026Z" stroke="black" stroke-width="1.5"/>
<path d="M3.07715 20.1026C3.07715 13.8176 3.07715 10.6743 5.03048 8.72262C6.98382 6.77095 10.1255 6.76929 16.4105 6.76929H23.0771C29.3621 6.76929 32.5055 6.76929 34.4571 8.72262C36.4088 10.676 36.4105 13.8176 36.4105 20.1026C36.4105 26.3876 36.4105 29.531 34.4571 31.4826C32.5038 33.4343 29.3621 33.436 23.0771 33.436H16.4105C10.1255 33.436 6.98215 33.436 5.03048 31.4826C3.07881 29.5293 3.07715 26.3876 3.07715 20.1026Z" stroke="black" stroke-width="1.5"/>
<path d="M31.4105 20.1025H24.7438M31.4105 15.1025H23.0771M31.4105 25.1025H26.4105" stroke="black" stroke-width="1.5" stroke-linecap="round"/>
</svg>
