<svg width="899" height="1206" viewBox="0 0 899 1206" fill="none" xmlns="http://www.w3.org/2000/svg">
<g opacity="0.3" filter="url(#filter0_f_213_6622)">
<path d="M598.949 393.267C572.17 483.549 527.753 567.639 468.235 640.733C408.716 713.828 335.262 774.497 252.065 819.275C168.868 864.054 77.5591 892.066 -16.6497 901.711C-110.858 911.357 -206.122 902.447 -297 875.491L-204.34 563.101C-154.756 577.808 -102.78 582.669 -51.3787 577.407C0.0223685 572.144 49.8415 556.861 95.2342 532.429C140.627 507.997 180.704 474.896 213.178 435.015C245.652 395.134 269.886 349.254 284.497 299.995L598.949 393.267Z" fill="#C4FFC9" fill-opacity="0.68"/>
</g>
<defs>
<filter id="filter0_f_213_6622" x="-597" y="-0.00488281" width="1495.95" height="1205.49" filterUnits="userSpaceOnUse" color-interpolation-filters="sRGB">
<feFlood flood-opacity="0" result="BackgroundImageFix"/>
<feBlend mode="normal" in="SourceGraphic" in2="BackgroundImageFix" result="shape"/>
<feGaussianBlur stdDeviation="150" result="effect1_foregroundBlur_213_6622"/>
</filter>
</defs>
</svg>
