<svg width="48" height="49" viewBox="0 0 48 49" fill="none" xmlns="http://www.w3.org/2000/svg">
<path d="M23.9746 0C17.6138 0.00683876 11.5158 2.57454 7.02044 7.13897C2.52507 11.7034 -3.57349e-06 17.8912 0 24.3429C0 30.799 2.52856 36.9907 7.02944 41.5559C11.5303 46.121 17.6348 48.6857 24 48.6857C29.4458 48.6786 34.7274 46.7932 38.9771 43.3391C43.2268 39.885 46.192 35.0676 47.3856 29.6783C46.5734 30.3293 45.6154 30.7304 44.6093 30.9101C44.3197 31.8486 43.9682 32.7663 43.5571 33.6569H37.0032C37.3755 31.9719 37.6383 30.2639 37.7899 28.5439C37.1676 27.827 36.7227 26.97 36.492 26.0439C36.4987 24.6676 35.7653 23.8015 34.7698 23.1257H25.2V21.1233C24.3267 20.8433 23.5127 20.4001 22.8 19.8165V23.1257H12.8962C12.9979 20.2362 13.3968 17.5006 14.0304 15.0293H20.3251C20.266 14.2039 20.3761 13.375 20.6486 12.595H14.76C15.2342 11.2201 15.7824 9.95136 16.3958 8.82185C18.1872 5.52096 20.4341 3.45717 22.8 2.86175V9.44211C23.507 8.81893 24.3203 8.33218 25.2 8.00588V2.76632C27.553 3.17236 29.8085 5.03216 31.6445 8.11396C32.3534 7.8496 33.0274 7.37102 33.6946 6.86079C33 5.69915 32.2296 4.64754 31.3877 3.74637C32.7585 4.25205 34.0749 4.89821 35.3165 5.67481C35.6371 5.46741 35.9597 5.27802 36.2909 5.14511C36.2684 4.6084 36.3155 4.07102 36.431 3.54675C32.6847 1.23477 28.3853 0.0081086 24 0L23.9746 0ZM17.2704 3.52095C16.1549 4.66604 15.1536 6.06235 14.293 7.64707C13.4866 9.13198 12.793 10.7956 12.2232 12.5945H5.7648C8.4216 8.35593 12.4728 5.11151 17.2704 3.52095ZM44.4883 11.7225C43.584 11.9582 42.6398 12.002 41.712 11.8014C41.8922 12.0617 42.0666 12.3262 42.2352 12.595H36.791C35.8464 13.3034 34.9195 14.0989 33.9293 14.4962C33.9994 14.6953 34.0949 14.8696 34.2058 15.0288H34.4136C34.4424 15.1417 34.4683 15.2581 34.4962 15.372C35.219 16.0819 36.3494 16.393 37.2845 16.9032C37.1691 16.2751 37.0378 15.6501 36.8909 15.0288H43.5571C43.8969 15.7679 44.1958 16.5256 44.4523 17.2985C45.5338 17.5293 46.5182 18.0663 47.3458 18.8068C46.7675 16.3075 45.8031 13.9167 44.4883 11.723M4.44288 15.0293H11.5507C10.9531 17.5424 10.5869 20.2679 10.4933 23.1262H2.43456C2.58376 20.3214 3.26569 17.5718 4.44288 15.0293ZM2.43456 25.56H10.4803C10.5422 28.411 10.8739 31.1365 11.4374 33.6564H4.44288C3.26569 31.114 2.58376 28.3648 2.43456 25.56ZM12.8803 25.56H22.8V33.6564H13.9104C13.3128 31.1735 12.9475 28.4398 12.8803 25.56ZM25.2 25.56H35.5642C35.497 28.4398 35.1312 31.1735 34.5336 33.6564H25.2V25.56ZM5.7648 36.0907H12.0701C12.6662 38.0795 13.4141 39.9077 14.293 41.5265C14.9832 42.7972 15.7656 43.9457 16.6229 44.9428C12.1075 43.2826 8.3016 40.1375 5.7648 36.0907ZM14.5939 36.0912H22.8V46.2169C22.6522 46.2086 22.5062 46.1935 22.3594 46.1828C20.1562 45.4525 18.0758 43.4466 16.3958 40.3527C15.7104 39.0898 15.1037 37.6569 14.5939 36.0917M25.2 36.0917H33.8501C33.3413 37.6574 32.7341 39.0902 32.0486 40.3532C30.4032 43.3838 28.3738 45.3717 26.221 46.1385C25.8827 46.1726 25.5424 46.1988 25.2 46.2173V36.0917ZM36.372 36.0917H42.2352C39.8081 39.9652 36.2444 42.969 32.0458 44.6803C32.8157 43.7456 33.5213 42.6871 34.151 41.5275C35.0299 39.9087 35.7773 38.08 36.372 36.0917Z" fill="white"/>
</svg>
