<svg width="48" height="48" viewBox="0 0 48 48" fill="none" xmlns="http://www.w3.org/2000/svg">
<path d="M39.1188 28.1693L26.2089 5.69893C25.8859 5.13863 25.4555 4.64735 24.9423 4.25315C24.4291 3.85896 23.8432 3.56956 23.218 3.40149C21.9459 3.0618 20.5912 3.23438 19.4453 3.88207L16.6374 5.51372C16.5656 5.54465 16.5027 5.593 16.4543 5.65438L16.2923 5.85834C16.1224 6.03911 16.0034 6.26152 15.9472 6.50303C14.946 9.55478 13.6993 12.5207 12.2191 15.3716C11.1789 17.1264 9.77491 18.6387 8.10131 19.8071L3.88959 23.5299C3.03587 24.2905 2.46771 25.3194 2.27909 26.4462C2.15913 27.2131 2.20638 27.9967 2.4176 28.7437C1.84007 29.0625 1.33767 29.5032 0.945608 30.0331C0.548459 30.5522 0.258763 31.1451 0.0934027 31.7772C-0.0311342 32.4222 -0.0311342 33.0851 0.0934027 33.7301C0.272276 35.0264 0.951293 36.2016 1.98563 37.0051C2.50211 37.3989 3.09608 37.6849 3.72995 37.8444C4.14314 37.9553 4.56494 38.0085 4.99534 38.0038C5.22385 38.0272 5.45392 38.0272 5.68556 38.0038C6.32412 37.9264 6.93687 37.7061 7.47918 37.3614C7.98628 37.9311 8.62719 38.3648 9.34323 38.6274C9.89963 38.8454 10.4936 38.9556 11.0922 38.9462C11.4194 38.954 11.7418 38.9157 12.0595 38.8313L15.8087 45.5197C16.2564 46.2689 16.8895 46.8906 17.6472 47.3249C18.405 47.7593 19.2618 47.9918 20.1355 48C21.2276 47.9868 22.2857 47.6185 23.1495 46.951C24.0132 46.2835 24.6356 45.3531 24.9224 44.3006C25.247 43.0292 25.074 41.6819 24.4388 40.5333L21.6309 35.6618C22.3885 35.493 23.1554 35.4008 23.9317 35.3852C27.2067 35.5235 30.4629 35.9384 33.6651 36.6277H34.4704L34.839 36.4636L35.1841 36.2573L37.6468 34.8342C38.7783 34.1802 39.6071 33.1065 39.9475 31.8476C40.1607 30.5605 39.8634 29.2412 39.1188 28.1693ZM11.2073 35.5704C10.8798 35.6853 10.5229 35.6853 10.1954 35.5704C9.87161 35.4553 9.60108 35.226 9.43479 34.9257L5.93676 28.814L5.70903 28.4225C5.53194 28.1131 5.46722 27.7522 5.52582 27.4006C5.58442 27.0491 5.76275 26.7285 6.03067 26.4931L8.62954 24.1957L9.59678 25.8953L14.5903 34.6279L11.2073 35.5704ZM36.2663 30.9755C36.1534 31.3663 35.899 31.7014 35.5526 31.9156L34.2638 32.6517L19.8585 7.58142L21.1708 6.8242C21.3387 6.72434 21.5257 6.66047 21.7197 6.63665C21.9137 6.61284 22.1105 6.62961 22.2977 6.68589C22.4894 6.73357 22.6696 6.81912 22.8277 6.9375C22.9857 7.05588 23.1185 7.20468 23.218 7.37512L36.1278 29.8244C36.2426 30.0162 36.3144 30.2306 36.3383 30.4528C36.3622 30.675 36.3377 30.8997 36.2663 31.1115V30.9755ZM35.6677 17.3245C35.3652 17.3296 35.0668 17.2536 34.8038 17.1043C34.5407 16.955 34.3226 16.738 34.1722 16.4758C33.9601 16.0865 33.9064 15.6305 34.0223 15.2026C34.1381 14.7747 34.4146 14.4079 34.7943 14.1784L40.5461 10.8447C40.9347 10.6269 41.3934 10.57 41.8236 10.6861C42.2537 10.8023 42.6211 11.0823 42.8469 11.466C43.059 11.8553 43.1127 12.3113 42.9968 12.7392C42.881 13.1671 42.6044 13.5339 42.2247 13.7634L36.4729 17.0947C36.2289 17.2395 35.9515 17.3186 35.6677 17.3245ZM46.2745 25.4593H39.6259C39.3993 25.4593 39.1749 25.4147 38.9655 25.3281C38.7562 25.2415 38.5659 25.1146 38.4057 24.9546C38.2455 24.7946 38.1184 24.6046 38.0317 24.3956C37.9449 24.1865 37.9003 23.9625 37.9003 23.7362C37.9003 23.5099 37.9449 23.2859 38.0317 23.0768C38.1184 22.8677 38.2455 22.6778 38.4057 22.5178C38.5659 22.3578 38.7562 22.2309 38.9655 22.1443C39.1749 22.0577 39.3993 22.0131 39.6259 22.0131H46.2745C46.7321 22.0131 47.171 22.1947 47.4946 22.5178C47.8182 22.8409 48 23.2792 48 23.7362C48 24.1932 47.8182 24.6315 47.4946 24.9546C47.171 25.2777 46.7321 25.4593 46.2745 25.4593ZM30.2375 9.12165C29.9378 9.12411 29.6431 9.04466 29.3853 8.8919C28.9979 8.66958 28.7134 8.30424 28.5931 7.87455C28.4728 7.44486 28.5263 6.98517 28.742 6.59446L32.0546 0.803969C32.2929 0.427206 32.668 0.157134 33.1013 0.0503102C33.5345 -0.0565131 33.9924 0.00819777 34.3789 0.230891C34.7655 0.453585 35.0508 0.816988 35.175 1.245C35.2993 1.67301 35.2529 2.13243 35.0455 2.52705L31.733 8.2941C31.5781 8.55069 31.3584 8.76217 31.096 8.9074C30.8335 9.05262 30.5375 9.1265 30.2375 9.12165Z" fill="#F4EFFF"/>
</svg>
