<svg width="48" height="48" viewBox="0 0 48 48" fill="none" xmlns="http://www.w3.org/2000/svg">
<path d="M44.4099 18.8202V29.0802C44.4299 29.8442 44.2359 30.6002 43.8499 31.2602C43.4293 31.922 42.8341 32.4549 42.1299 32.8001C41.5709 33.0788 40.9545 33.2226 40.3299 33.2202H39.8299C39.0985 33.117 38.4079 32.8201 37.8299 32.3602L32.7699 28.3602V30.1802C32.7699 32.4822 31.8554 34.69 30.2276 36.3178C28.5998 37.9457 26.392 38.8602 24.0899 38.8602H12.2699C9.96868 38.8548 7.76239 37.9421 6.12993 36.3202C5.32049 35.5163 4.67905 34.5595 4.24298 33.5054C3.80691 32.4512 3.58492 31.3209 3.58993 30.1802V17.8402C3.58781 16.7007 3.81216 15.5722 4.24993 14.5202C5.13397 12.3893 6.82287 10.6932 8.94993 9.80015C10.0019 9.36238 11.1305 9.13804 12.2699 9.14015H23.8499C24.9956 9.14063 26.1302 9.36483 27.1899 9.80015C29.317 10.6932 31.0059 12.3893 31.8899 14.5202C32.3299 15.5782 32.5499 16.7142 32.5299 17.8602V19.6602L37.5899 15.6602C38.0504 15.2984 38.5817 15.0374 39.1495 14.894C39.7173 14.7507 40.3088 14.7283 40.8858 14.8283C41.4628 14.9282 42.0124 15.1483 42.4989 15.4742C42.9854 15.8001 43.398 16.2246 43.7099 16.7202C44.1239 17.3462 44.3659 18.0702 44.4099 18.8202Z" fill="white"/>
</svg>
