<svg width="48" height="48" viewBox="0 0 48 48" fill="none" xmlns="http://www.w3.org/2000/svg">
<path d="M35.5 6C37.2239 6 38.8772 6.68482 40.0962 7.90381C41.3152 9.12279 42 10.7761 42 12.5V24.044C41.0647 23.4451 40.0565 22.9686 39 22.626V17H9V35.5C9 37.432 10.568 39 12.5 39H22.626C22.972 40.068 23.45 41.074 24.044 42H12.5C10.7761 42 9.12279 41.3152 7.90381 40.0962C6.68482 38.8772 6 37.2239 6 35.5V12.5C6 10.7761 6.68482 9.12279 7.90381 7.90381C9.12279 6.68482 10.7761 6 12.5 6H35.5ZM35.5 9H12.5C11.5717 9 10.6815 9.36875 10.0251 10.0251C9.36875 10.6815 9 11.5717 9 12.5V14H39V12.5C39 11.5717 38.6312 10.6815 37.9749 10.0251C37.3185 9.36875 36.4283 9 35.5 9ZM24 35C24 37.9174 25.1589 40.7153 27.2218 42.7782C29.2847 44.8411 32.0826 46 35 46C37.9174 46 40.7153 44.8411 42.7782 42.7782C44.8411 40.7153 46 37.9174 46 35C46 32.0826 44.8411 29.2847 42.7782 27.2218C40.7153 25.1589 37.9174 24 35 24C32.0826 24 29.2847 25.1589 27.2218 27.2218C25.1589 29.2847 24 32.0826 24 35ZM41 28C41.2652 28 41.5196 28.1054 41.7071 28.2929C41.8946 28.4804 42 28.7348 42 29V33C42 33.2652 41.8946 33.5196 41.7071 33.7071C41.5196 33.8946 41.2652 34 41 34H37C36.7348 34 36.4804 33.8946 36.2929 33.7071C36.1054 33.5196 36 33.2652 36 33C36 32.7348 36.1054 32.4804 36.2929 32.2929C36.4804 32.1054 36.7348 32 37 32H39C38.5343 31.379 37.9303 30.875 37.2361 30.5279C36.5418 30.1807 35.7762 30 35 30C33.334 30 31.856 30.814 30.946 32.072C30.7881 32.2802 30.555 32.4184 30.2965 32.4569C30.038 32.4954 29.7747 32.4312 29.563 32.278C29.3513 32.1248 29.2079 31.8949 29.1636 31.6373C29.1193 31.3798 29.1776 31.1151 29.326 30.9C29.9748 30.0021 30.8275 29.2711 31.8139 28.7669C32.8003 28.2628 33.8922 27.9999 35 28C36.96 28 38.73 28.806 40 30.1V29C40 28.7348 40.1054 28.4804 40.2929 28.2929C40.4804 28.1054 40.7348 28 41 28ZM30 39.9V41C30 41.2652 29.8946 41.5196 29.7071 41.7071C29.5196 41.8946 29.2652 42 29 42C28.7348 42 28.4804 41.8946 28.2929 41.7071C28.1054 41.5196 28 41.2652 28 41V37C28 36.7348 28.1054 36.4804 28.2929 36.2929C28.4804 36.1054 28.7348 36 29 36H33C33.2652 36 33.5196 36.1054 33.7071 36.2929C33.8946 36.4804 34 36.7348 34 37C34 37.2652 33.8946 37.5196 33.7071 37.7071C33.5196 37.8946 33.2652 38 33 38H31C31.912 39.216 33.366 40 35 40C36.532 40 37.904 39.312 38.822 38.224C38.9945 38.0264 39.2378 37.9045 39.4994 37.8846C39.761 37.8648 40.0199 37.9484 40.2203 38.1177C40.4208 38.2869 40.5467 38.5281 40.5709 38.7893C40.5952 39.0505 40.5159 39.3108 40.35 39.514C39.6929 40.2928 38.8737 40.9187 37.9497 41.3481C37.0256 41.7775 36.019 42 35 42C34.0688 42.0001 33.1469 41.8145 32.2884 41.4539C31.4298 41.0933 30.6518 40.565 30 39.9Z" fill="white"/>
</svg>
