<svg width="86" height="82" viewBox="0 0 86 82" fill="none" xmlns="http://www.w3.org/2000/svg">
<path fill-rule="evenodd" clip-rule="evenodd" d="M34.7664 2.59991C38.0773 -9.75678 50.7785 -17.0898 63.1352 -13.7788C75.4918 -10.4679 82.8249 2.23328 79.5139 14.59C76.2029 26.9467 63.5018 34.2797 51.1451 30.9687C38.7884 27.6577 31.4554 14.9566 34.7664 2.59991ZM61.0193 -5.8822C53.0238 -8.02459 44.8054 -3.2797 42.663 4.7158C40.5206 12.7113 45.2655 20.9297 53.261 23.0721C61.2565 25.2145 69.4749 20.4696 71.6173 12.4741C73.7597 4.47857 69.0148 -3.73981 61.0193 -5.8822Z" fill="#DCC8F5"/>
<path fill-rule="evenodd" clip-rule="evenodd" d="M25.8556 41.1196C19.3139 39.3667 12.5897 43.2489 10.8369 49.7907L9.16069 56.0463C9.13516 56.1415 9.18243 56.2412 9.27233 56.2818C30.0066 65.6317 52.1201 71.557 74.7514 73.8268C74.8496 73.8367 74.9404 73.774 74.9659 73.6787L76.6421 67.4231C78.3949 60.8813 74.5127 54.1572 67.971 52.4043L66.1765 51.9235C66.0377 51.8863 65.894 51.8713 65.7505 51.879L60.7955 52.146C50.6918 52.6902 40.6769 50.0067 32.199 44.4836L28.0412 41.7749C27.9209 41.6964 27.7889 41.6376 27.6501 41.6004L25.8556 41.1196ZM2.94025 47.6748C5.86169 36.7718 17.0686 30.3015 27.9715 33.2229L29.766 33.7038C30.7373 33.964 31.6612 34.3762 32.5037 34.9251L36.6615 37.6338C43.686 42.2101 51.9841 44.4336 60.3557 43.9826L65.3108 43.7157C66.3148 43.6616 67.3211 43.7666 68.2924 44.0269L70.0869 44.5077C80.9898 47.4291 87.4601 58.636 84.5387 69.539L82.8625 75.7946C81.8 79.7599 78.0203 82.3709 73.9356 81.9612C50.4246 79.6031 27.4518 73.4476 5.91168 63.7343C2.16938 62.0467 0.20156 57.8957 1.26406 53.9304L2.94025 47.6748Z" fill="#DCC8F5"/>
</svg>
