<svg width="112" height="166" viewBox="0 0 112 166" fill="none" xmlns="http://www.w3.org/2000/svg">
<g opacity="0.2" filter="url(#filter0_di_16_390)">
<path d="M80.1613 106.399C78.958 101.908 81.623 97.2925 86.1138 96.0892C90.6046 94.8858 95.2206 97.5509 96.424 102.042C97.6273 106.533 94.9622 111.149 90.4714 112.352C85.9806 113.555 81.3646 110.89 80.1613 106.399Z" fill="#DCC8F5"/>
<path fill-rule="evenodd" clip-rule="evenodd" d="M59.0005 42.3771C60.1257 41.5381 61.3454 40.8339 62.6346 40.2789C70.3092 36.9753 79.2483 39.4014 84.1996 46.1319L84.8852 47.0638C85.7347 48.2186 86.4537 49.4639 87.029 50.777L90.2692 58.1726L97.9798 54.7943L94.7396 47.3988C93.9148 45.5163 92.884 43.7309 91.6661 42.0754L90.9805 41.1434C83.7082 31.2578 70.5785 27.6943 59.3061 32.5467C57.4126 33.3618 55.6211 34.3961 53.9684 35.6284C44.1299 42.9644 40.6512 56.1168 45.5762 67.3576L46.0405 68.4174C46.8653 70.2999 47.896 72.0852 49.1139 73.7408L55.092 81.867L53.0683 82.5861C47.3245 84.6274 43.7141 90.3237 44.3196 96.3892C45.5825 109.04 48.8947 121.402 54.1265 132.989C56.6349 138.545 62.6097 141.673 68.6046 140.569L76.8885 139.043C90.0406 136.621 102.979 133.154 115.58 128.675L123.517 125.855C129.261 123.814 132.871 118.117 132.266 112.052C131.003 99.4008 127.691 87.0394 122.459 75.4519C119.95 69.8962 113.976 66.7683 107.981 67.8724L99.6967 69.3981C87.371 71.6682 75.2332 74.8557 63.3846 78.9333L55.8949 68.7523C55.0454 67.5975 54.3264 66.3522 53.7511 65.0391L53.2868 63.9794C49.9337 56.3262 52.3021 47.3717 59.0005 42.3771ZM101.222 77.6771C88.5093 80.0184 76.0039 83.3692 63.8241 87.6977L55.8872 90.5183C53.7922 91.2629 52.4753 93.3406 52.6961 95.553C53.8683 107.296 56.9427 118.769 61.7989 129.525C62.7138 131.551 64.8932 132.692 67.0798 132.29L75.3637 130.764C88.0759 128.423 100.581 125.072 112.761 120.743L120.698 117.923C122.793 117.178 124.11 115.1 123.889 112.888C122.717 101.145 119.642 89.6715 114.786 78.916C113.871 76.8896 111.692 75.7486 109.505 76.1514L101.222 77.6771Z" fill="#DCC8F5"/>
</g>
<defs>
<filter id="filter0_di_16_390" x="-12.0321" y="-7.16312" width="189.026" height="189.026" filterUnits="userSpaceOnUse" color-interpolation-filters="sRGB">
<feFlood flood-opacity="0" result="BackgroundImageFix"/>
<feColorMatrix in="SourceAlpha" type="matrix" values="0 0 0 0 0 0 0 0 0 0 0 0 0 0 0 0 0 0 127 0" result="hardAlpha"/>
<feOffset dy="4.81285"/>
<feGaussianBlur stdDeviation="6.01606"/>
<feColorMatrix type="matrix" values="0 0 0 0 0.0606039 0 0 0 0 0.0178901 0 0 0 0 0.148018 0 0 0 0.8 0"/>
<feBlend mode="normal" in2="BackgroundImageFix" result="effect1_dropShadow_16_390"/>
<feBlend mode="normal" in="SourceGraphic" in2="effect1_dropShadow_16_390" result="shape"/>
<feColorMatrix in="SourceAlpha" type="matrix" values="0 0 0 0 0 0 0 0 0 0 0 0 0 0 0 0 0 0 127 0" result="hardAlpha"/>
<feOffset dy="1.20321"/>
<feGaussianBlur stdDeviation="1.20321"/>
<feComposite in2="hardAlpha" operator="arithmetic" k2="-1" k3="1"/>
<feColorMatrix type="matrix" values="0 0 0 0 1 0 0 0 0 1 0 0 0 0 1 0 0 0 0.25 0"/>
<feBlend mode="normal" in2="shape" result="effect2_innerShadow_16_390"/>
</filter>
</defs>
</svg>
