<svg width="41" height="43" viewBox="0 0 41 43" fill="none" xmlns="http://www.w3.org/2000/svg">
<path d="M20.5 1.5C9.45161 1.5 0.5 10.4516 0.5 21.5C0.5 32.5484 9.45161 41.5 20.5 41.5C31.5484 41.5 40.5 32.5484 40.5 21.5C40.5 10.4516 31.5484 1.5 20.5 1.5ZM20.5 37.629C11.6048 37.629 4.37097 30.3952 4.37097 21.5C4.37097 12.6048 11.6048 5.37097 20.5 5.37097C29.3952 5.37097 36.629 12.6048 36.629 21.5C36.629 30.3952 29.3952 37.629 20.5 37.629ZM14.0484 20.2097C15.4758 20.2097 16.629 19.0565 16.629 17.629C16.629 16.2016 15.4758 15.0484 14.0484 15.0484C12.621 15.0484 11.4677 16.2016 11.4677 17.629C11.4677 19.0565 12.621 20.2097 14.0484 20.2097ZM26.9516 20.2097C28.379 20.2097 29.5323 19.0565 29.5323 17.629C29.5323 16.2016 28.379 15.0484 26.9516 15.0484C25.5242 15.0484 24.371 16.2016 24.371 17.629C24.371 19.0565 25.5242 20.2097 26.9516 20.2097ZM27.2742 26.0645C25.5968 28.0806 23.121 29.2419 20.5 29.2419C17.879 29.2419 15.4032 28.0887 13.7258 26.0645C13.0403 25.2419 11.8145 25.1371 11 25.8145C10.1774 26.5 10.0726 27.7177 10.75 28.5403C13.1694 31.4435 16.7258 33.1048 20.5 33.1048C24.2742 33.1048 27.8306 31.4435 30.25 28.5403C30.9355 27.7177 30.8226 26.5 30 25.8145C29.1855 25.1371 27.9597 25.2419 27.2742 26.0645Z" fill="black"/>
</svg>
