<svg width="40" height="40" viewBox="0 0 40 40" fill="none" xmlns="http://www.w3.org/2000/svg">
<path d="M21.667 5V16.6667H33.3337M10.0003 11.6667H8.33366C7.89163 11.6667 7.46771 11.8423 7.15515 12.1548C6.84259 12.4674 6.66699 12.8913 6.66699 13.3333V33.3333C6.66699 33.7754 6.84259 34.1993 7.15515 34.5118C7.46771 34.8244 7.89163 35 8.33366 35H23.3337C23.7757 35 24.1996 34.8244 24.5122 34.5118C24.8247 34.1993 25.0003 33.7754 25.0003 33.3333V31.6667M13.3337 6.66667V26.6667C13.3337 27.1087 13.5093 27.5326 13.8218 27.8452C14.1344 28.1577 14.5583 28.3333 15.0003 28.3333H31.667C32.109 28.3333 32.5329 28.1577 32.8455 27.8452C33.1581 27.5326 33.3337 27.1087 33.3337 26.6667V15.6483C33.3337 15.2312 33.1773 14.8291 32.8953 14.5217L24.662 5.54C24.5058 5.36979 24.316 5.23389 24.1046 5.14093C23.8931 5.04797 23.6646 4.99998 23.4337 5H15.0003C14.5583 5 14.1344 5.17559 13.8218 5.48816C13.5093 5.80072 13.3337 6.22464 13.3337 6.66667Z" stroke="black" stroke-width="3.33333" stroke-linejoin="round"/>
</svg>
