<svg width="40" height="41" viewBox="0 0 40 41" fill="none" xmlns="http://www.w3.org/2000/svg">
<path d="M26.6663 35.5V32.1667C26.6663 30.3986 25.964 28.7029 24.7137 27.4526C23.4635 26.2024 21.7678 25.5 19.9997 25.5H9.99967C8.23156 25.5 6.53587 26.2024 5.28563 27.4526C4.03539 28.7029 3.33301 30.3986 3.33301 32.1667V35.5" stroke="black" stroke-width="2" stroke-linecap="round" stroke-linejoin="round"/>
<path d="M14.9997 18.8333C18.6816 18.8333 21.6663 15.8486 21.6663 12.1667C21.6663 8.48477 18.6816 5.5 14.9997 5.5C11.3178 5.5 8.33301 8.48477 8.33301 12.1667C8.33301 15.8486 11.3178 18.8333 14.9997 18.8333Z" stroke="black" stroke-width="2" stroke-linecap="round" stroke-linejoin="round"/>
<path d="M36.666 35.5001V32.1668C36.6649 30.6897 36.1733 29.2547 35.2683 28.0873C34.3633 26.9199 33.0962 26.0861 31.666 25.7168M26.666 5.7168C28.1 6.08397 29.3711 6.91797 30.2787 8.08731C31.1864 9.25666 31.6791 10.6948 31.6791 12.1751C31.6791 13.6554 31.1864 15.0936 30.2787 16.2629C29.3711 17.4323 28.1 18.2663 26.666 18.6335" stroke="black" stroke-width="2" stroke-linecap="round" stroke-linejoin="round"/>
</svg>
