<svg width="41" height="40" viewBox="0 0 41 40" fill="none" xmlns="http://www.w3.org/2000/svg">
<path d="M20.4997 3.3335C29.7047 3.3335 37.1663 10.7952 37.1663 20.0002C37.1663 29.2052 29.7047 36.6668 20.4997 36.6668C11.2947 36.6668 3.83301 29.2052 3.83301 20.0002C3.83301 10.7952 11.2947 3.3335 20.4997 3.3335ZM20.4997 6.66683C16.9635 6.66683 13.5721 8.07159 11.0716 10.5721C8.5711 13.0726 7.16634 16.4639 7.16634 20.0002C7.16634 23.5364 8.5711 26.9278 11.0716 29.4283C13.5721 31.9287 16.9635 33.3335 20.4997 33.3335C24.0359 33.3335 27.4273 31.9287 29.9278 29.4283C32.4283 26.9278 33.833 23.5364 33.833 20.0002C33.833 16.4639 32.4283 13.0726 29.9278 10.5721C27.4273 8.07159 24.0359 6.66683 20.4997 6.66683ZM20.4997 10.0002C20.9079 10.0002 21.3019 10.1501 21.607 10.4214C21.912 10.6926 22.1069 11.0664 22.1547 11.4718L22.1663 11.6668V19.3102L26.678 23.8218C26.9769 24.1218 27.1505 24.5242 27.1634 24.9475C27.1763 25.3707 27.0277 25.783 26.7476 26.1006C26.4675 26.4182 26.0771 26.6173 25.6556 26.6575C25.234 26.6977 24.813 26.5758 24.478 26.3168L24.3213 26.1785L19.3213 21.1785C19.0623 20.9192 18.8959 20.5818 18.848 20.2185L18.833 20.0002V11.6668C18.833 11.2248 19.0086 10.8009 19.3212 10.4883C19.6337 10.1758 20.0576 10.0002 20.4997 10.0002Z" fill="black"/>
</svg>
