<svg width="144" height="144" viewBox="0 0 144 144" fill="none" xmlns="http://www.w3.org/2000/svg">
<g clip-path="url(#clip0_48_2309)">
<rect x="24" y="24" width="96" height="96" rx="48" fill="#B90101"/>
<path d="M52.7998 92.8002V51.2002L81.4371 92.8002V51.2002M62.5625 92.8002V51.2002L91.1998 92.8002V51.2002" stroke="white" stroke-linecap="round" stroke-linejoin="round"/>
<path d="M72.6787 14.0131L73.2746 2.82899L77.924 3.07674L77.8389 4.67447L74.947 4.52037L74.781 7.63595L77.0498 7.75685L76.9646 9.35458L74.6958 9.23368L74.4362 14.1068L72.6787 14.0131Z" fill="black"/>
<path d="M81.3145 14.9655C79.6101 14.6806 78.8478 13.515 79.1432 11.7476L80.1137 5.94008C80.409 4.17259 81.5089 3.3182 83.2133 3.60302C84.9176 3.88784 85.6799 5.05343 85.3846 6.82092L84.4141 12.6284C84.1187 14.3959 83.0188 15.2503 81.3145 14.9655ZM81.5782 13.3873C82.1305 13.4796 82.5278 13.2378 82.6597 12.4488L83.6671 6.42036C83.799 5.6313 83.5019 5.27344 82.9496 5.18113C82.3972 5.08883 81.9999 5.33065 81.8681 6.11971L80.8606 12.1481C80.7288 12.9372 81.0259 13.295 81.5782 13.3873Z" fill="black"/>
<path d="M85.6339 15.5991L88.7928 4.85377L91.2949 5.58933C93.0448 6.10378 93.5578 7.13848 93.0705 8.79632L92.8764 9.45639C92.5515 10.5616 91.9909 11.1639 91.1484 11.2498L91.1394 11.2805C91.907 11.7897 91.9486 12.6691 91.5921 13.8818L91.0371 15.7699C90.8836 16.2918 90.7862 16.6801 90.8377 17.1289L89.1184 16.6234C89.1076 16.3201 89.0958 16.1332 89.353 15.2582L89.9307 13.2933C90.224 12.2956 90.0271 11.8875 89.2596 11.6618L88.6762 11.4903L87.3224 16.0955L85.6339 15.5991ZM89.1275 9.95529L89.7415 10.1358C90.3709 10.3208 90.8359 10.1573 91.0886 9.2977L91.3323 8.46878C91.5579 7.70126 91.3962 7.28683 90.7976 7.11084L90.0301 6.88521L89.1275 9.95529Z" fill="black"/>
<path d="M92.2701 17.572L96.8539 7.35302L99.1459 8.38112L96.8871 16.1534L96.9163 16.1665L101.219 9.31099L103.511 10.3391L98.927 20.5581L97.4088 19.8771L100.879 12.1398L100.85 12.1267L96.2117 19.3401L94.8686 18.7376L97.1714 10.4765L97.1422 10.4634L93.6715 18.2007L92.2701 17.572Z" fill="black"/>
<path d="M99.7751 21.0474L107.2 12.4662L109.23 13.716L104.912 24.2097L103.413 23.287L104.306 21.2254L104.29 21.2527L102.587 20.2042L101.165 21.903L99.7751 21.0474ZM103.561 19.0188L104.909 19.8492L107.144 14.724L107.117 14.7072L103.561 19.0188Z" fill="black"/>
<path d="M106.602 25.5027L112.5 17.9281L111.048 16.7976L112.031 15.5352L116.323 18.8774L115.34 20.1398L113.888 19.0094L107.99 26.5839L106.602 25.5027Z" fill="black"/>
<path d="M110.535 28.704L118.192 20.53L119.476 21.7333L111.819 29.9072L110.535 28.704Z" fill="black"/>
<path d="M115.146 33.5631C114.003 32.2674 114.146 30.8821 115.49 29.6964L119.905 25.8007C121.248 24.6151 122.641 24.6454 123.784 25.9411C124.927 27.2368 124.784 28.6221 123.441 29.8078L119.026 33.7035C117.682 34.8891 116.289 34.8588 115.146 33.5631ZM116.346 32.5045C116.716 32.9244 117.177 32.9872 117.777 32.4579L122.36 28.414C122.96 27.8847 122.955 27.4196 122.584 26.9997C122.214 26.5798 121.753 26.517 121.153 27.0463L116.57 31.0902C115.97 31.6195 115.975 32.0846 116.346 32.5045Z" fill="black"/>
<path d="M118.107 36.7742L127.343 30.4392L128.592 32.26L124.032 37.4638L124.05 37.4902L129.579 33.6982L130.465 34.9913L121.229 41.3263L120.207 39.8353L125.754 33.4691L125.736 33.4427L118.994 38.0672L118.107 36.7742Z" fill="black"/>
<path d="M128.059 46.1885C127.637 45.2555 128.044 44.1757 128.977 43.7536C129.91 43.3315 130.99 43.7386 131.412 44.6715C131.834 45.6045 131.427 46.6843 130.494 47.1064C129.561 47.5285 128.481 47.1214 128.059 46.1885Z" fill="black"/>
<path d="M127.406 54.8214L138.237 51.9722L139.422 56.475L137.874 56.8821L137.138 54.0813L134.12 54.875L134.698 57.0723L133.151 57.4793L132.573 55.2821L127.854 56.5235L127.406 54.8214Z" fill="black"/>
<path d="M129.132 63.3309C128.884 61.6208 129.762 60.5396 131.536 60.2825L137.363 59.4374C139.136 59.1802 140.285 59.9675 140.533 61.6776C140.781 63.3877 139.903 64.4689 138.13 64.7261L132.303 65.5711C130.529 65.8283 129.38 65.0411 129.132 63.3309ZM130.716 63.1013C130.796 63.6555 131.148 63.9602 131.939 63.8454L137.988 62.9682C138.78 62.8534 139.03 62.4614 138.95 61.9072C138.869 61.353 138.518 61.0483 137.726 61.1631L131.677 62.0403C130.886 62.1551 130.635 62.5471 130.716 63.1013Z" fill="black"/>
<path d="M129.846 67.658L141.042 67.3793L141.107 69.9865C141.153 71.8099 140.324 72.6148 138.597 72.6578L137.909 72.6749C136.758 72.7036 136.013 72.354 135.673 71.5782L135.641 71.579C135.391 72.4655 134.567 72.7741 133.303 72.8055L131.336 72.8545C130.792 72.8681 130.392 72.894 129.981 73.0803L129.936 71.2889C130.222 71.1857 130.396 71.1174 131.308 71.0947L133.355 71.0437C134.395 71.0178 134.723 70.7056 134.703 69.9058L134.688 69.298L129.89 69.4174L129.846 67.658ZM136.288 69.2582L136.304 69.898C136.32 70.5538 136.618 70.9465 137.514 70.9242L138.377 70.9027C139.177 70.8828 139.522 70.6021 139.507 69.9783L139.487 69.1786L136.288 69.2582Z" fill="black"/>
<path d="M129.994 74.6874L141.126 75.9169L140.851 78.4137L132.76 78.647L132.757 78.6788L140.601 80.672L140.325 83.1688L129.193 81.9393L129.376 80.2853L137.805 81.2163L137.808 81.1845L129.52 78.9813L129.681 77.5182L138.251 77.1768L138.254 77.145L129.825 76.2141L129.994 74.6874Z" fill="black"/>
<path d="M128.996 82.8615L139.443 87.2914L138.877 89.6073L127.564 88.7211L127.982 87.0114L130.219 87.2284L130.187 87.2208L130.662 85.2779L128.609 84.4468L128.996 82.8615ZM132.089 85.8407L131.713 87.3795L137.277 87.9317L137.285 87.9006L132.089 85.8407Z" fill="black"/>
<path d="M126.848 90.7323L135.864 94.0298L136.496 92.3018L137.999 92.8514L136.13 97.9604L134.628 97.4108L135.26 95.6827L126.244 92.3852L126.848 90.7323Z" fill="black"/>
<path d="M125.007 95.4478L135.127 100.246L134.373 101.836L124.253 97.0381L125.007 95.4478Z" fill="black"/>
<path d="M121.781 101.325C122.667 99.8418 124.031 99.5568 125.569 100.476L130.623 103.497C132.161 104.416 132.556 105.752 131.669 107.235C130.783 108.718 129.42 109.003 127.881 108.084L122.827 105.063C121.289 104.144 120.894 102.808 121.781 101.325ZM123.154 102.146C122.867 102.627 122.947 103.085 123.634 103.495L128.88 106.631C129.567 107.041 130.009 106.895 130.296 106.414C130.583 105.934 130.503 105.476 129.816 105.065L124.57 101.929C123.883 101.519 123.442 101.665 123.154 102.146Z" fill="black"/>
<path d="M119.628 105.113L128.471 111.985L127.117 113.729L120.773 110.967L120.753 110.993L126.047 115.106L125.084 116.344L116.241 109.472L117.35 108.044L125.102 111.393L125.122 111.368L118.666 106.351L119.628 105.113Z" fill="black"/>
<path d="M113.693 117.457C114.453 116.77 115.605 116.828 116.292 117.588C116.979 118.347 116.921 119.5 116.162 120.187C115.402 120.873 114.25 120.816 113.563 120.056C112.876 119.297 112.934 118.144 113.693 117.457Z" fill="black"/>
<path d="M105.263 119.484L111.299 128.919L107.377 131.428L106.515 130.08L108.954 128.519L107.273 125.891L105.359 127.116L104.497 125.768L106.41 124.543L103.781 120.433L105.263 119.484Z" fill="black"/>
<path d="M97.6865 123.745C99.2378 122.984 100.536 123.487 101.326 125.096L103.919 130.382C104.709 131.991 104.312 133.326 102.761 134.087C101.21 134.848 99.9113 134.345 99.1219 132.736L96.5282 127.45C95.7388 125.841 96.1352 124.506 97.6865 123.745ZM98.3913 125.181C97.8885 125.428 97.7065 125.856 98.0589 126.574L100.751 132.061C101.104 132.779 101.554 132.897 102.056 132.651C102.559 132.404 102.741 131.976 102.389 131.258L99.6964 125.771C99.3439 125.052 98.894 124.935 98.3913 125.181Z" fill="black"/>
<path d="M93.8194 125.74L97.513 136.314L95.0509 137.174C93.3289 137.775 92.3091 137.233 91.7392 135.602L91.5123 134.952C91.1324 133.865 91.2371 133.049 91.8717 132.488L91.8612 132.458C90.9407 132.491 90.3944 131.801 89.9776 130.608L89.3286 128.75C89.1492 128.236 89.0021 127.864 88.6988 127.529L90.3905 126.938C90.5762 127.178 90.6946 127.323 90.9954 128.184L91.6708 130.118C92.0138 131.1 92.4116 131.317 93.1668 131.053L93.7408 130.852L92.1578 126.321L93.8194 125.74ZM94.2685 132.363L93.6643 132.574C93.045 132.79 92.7623 133.194 93.0578 134.04L93.3427 134.855C93.6066 135.611 93.9794 135.853 94.5685 135.647L95.3238 135.384L94.2685 132.363Z" fill="black"/>
<path d="M87.2286 128.016L89.4477 138.994L86.9855 139.492L84.2995 131.857L84.2681 131.863L84.7586 139.942L82.2964 140.44L80.0773 129.462L81.7083 129.132L83.3885 137.444L83.4198 137.438L82.9943 128.872L84.4371 128.581L87.3719 136.639L87.4033 136.633L85.7231 128.321L87.2286 128.016Z" fill="black"/>
<path d="M79.1534 129.551L78.1236 140.852L75.7456 141.02L73.1364 129.977L74.892 129.853L75.368 132.048L75.3658 132.017L77.3608 131.875L77.5255 129.666L79.1534 129.551ZM77.2605 133.406L75.6804 133.518L76.8528 138.985L76.8847 138.983L77.2605 133.406Z" fill="black"/>
<path d="M70.9134 129.912L70.5354 139.504L72.374 139.577L72.311 141.176L66.8752 140.961L66.9382 139.363L68.7768 139.435L69.1547 129.843L70.9134 129.912Z" fill="black"/>
<path d="M65.8341 129.602L64.3738 140.707L62.6289 140.477L64.0891 129.373L65.8341 129.602Z" fill="black"/>
<path d="M59.2847 128.344C60.9686 128.732 61.6589 129.941 61.2569 131.688L59.936 137.425C59.534 139.172 58.3843 139.958 56.7004 139.57C55.0164 139.183 54.3262 137.973 54.7282 136.227L56.0491 130.489C56.4511 128.742 57.6007 127.956 59.2847 128.344ZM58.9258 129.903C58.38 129.777 57.9688 129.995 57.7893 130.774L56.4182 136.731C56.2387 137.51 56.5136 137.885 57.0593 138.011C57.605 138.137 58.0163 137.919 58.1957 137.14L59.5668 131.184C59.7463 130.404 59.4715 130.029 58.9258 129.903Z" fill="black"/>
<path d="M55.0027 127.455L51.1661 137.977L49.0917 137.221L49.7798 130.336L49.7497 130.325L47.4532 136.623L45.9801 136.086L49.8167 125.564L51.5153 126.183L50.6988 134.588L50.7288 134.599L53.5296 126.918L55.0027 127.455Z" fill="black"/>
<path d="M41.4354 125.571C42.3207 126.085 42.6162 127.201 42.1017 128.086C41.5872 128.972 40.4717 129.267 39.5863 128.753C38.701 128.238 38.4055 127.123 38.92 126.237C39.4345 125.352 40.55 125.056 41.4354 125.571Z" fill="black"/>
<path d="M36.9451 118.159L29.793 126.778L26.2099 123.805L27.2316 122.573L29.4603 124.423L31.4527 122.022L29.7042 120.571L30.726 119.34L32.4744 120.79L35.5907 117.035L36.9451 118.159Z" fill="black"/>
<path d="M30.5802 112.237C31.7782 113.482 31.6946 114.873 30.4032 116.115L26.1598 120.197C24.8683 121.439 23.4759 121.469 22.2779 120.223C21.08 118.978 21.1635 117.588 22.455 116.346L26.6984 112.264C27.9898 111.021 29.3822 110.992 30.5802 112.237ZM29.4271 113.346C29.0389 112.943 28.5758 112.9 27.9992 113.454L23.5944 117.692C23.0178 118.246 23.0428 118.711 23.431 119.114C23.8192 119.518 24.2824 119.561 24.8589 119.006L29.2637 114.769C29.8403 114.214 29.8153 113.75 29.4271 113.346Z" fill="black"/>
<path d="M27.4927 109.155L18.5571 115.907L16.9848 113.826C15.8851 112.371 16.089 111.234 17.4676 110.193L18.0165 109.778C18.9356 109.083 19.7446 108.933 20.4726 109.366L20.4981 109.346C20.1846 108.48 20.6748 107.749 21.6832 106.987L23.2533 105.8C23.6873 105.472 23.9968 105.219 24.2226 104.827L25.303 106.257C25.1311 106.507 25.0292 106.664 24.3016 107.214L22.6677 108.449C21.838 109.076 21.7532 109.521 22.2355 110.159L22.6021 110.644L26.4316 107.751L27.4927 109.155ZM21.3256 111.609L20.9397 111.098C20.5442 110.575 20.0733 110.43 19.3584 110.97L18.6691 111.491C18.0309 111.973 17.914 112.402 18.2902 112.9L18.7725 113.538L21.3256 111.609Z" fill="black"/>
<path d="M23.3273 103.608L13.5652 109.098L12.3339 106.908L18.7717 102.003L18.756 101.975L11.2202 104.928L9.9888 102.738L19.7509 97.2482L20.5666 98.6986L13.1753 102.855L13.191 102.883L21.2097 99.8421L21.9313 101.125L15.1674 106.398L15.1831 106.426L22.5744 102.269L23.3273 103.608Z" fill="black"/>
<path d="M19.3584 96.3481L8.28548 98.8294L7.39704 96.6171L17.1105 90.7507L17.7664 92.3839L15.8219 93.5096L15.8516 93.4977L16.5969 95.3536L18.7502 94.8337L19.3584 96.3481ZM15.1089 95.7271L14.5186 94.2572L9.67352 97.0478L9.68545 97.0775L15.1089 95.7271Z" fill="black"/>
<path d="M16.5276 88.7203L7.27863 91.2925L7.77165 93.0653L6.23015 93.494L4.77253 88.2529L6.31402 87.8242L6.80704 89.5969L16.056 87.0246L16.5276 88.7203Z" fill="black"/>
<path d="M15.2734 83.7946L4.25196 85.7866L3.93892 84.0547L14.9603 82.0626L15.2734 83.7946Z" fill="black"/>
<path d="M14.4758 77.1711C14.6202 78.893 13.6787 79.9193 11.893 80.0691L6.02559 80.5613C4.23986 80.711 3.14053 79.8559 2.9961 78.134C2.85166 76.412 3.79317 75.3857 5.5789 75.236L11.4463 74.7438C13.232 74.594 14.3313 75.4491 14.4758 77.1711ZM12.8814 77.3048C12.8346 76.7468 12.5022 76.4214 11.705 76.4883L5.6144 76.9992C4.8172 77.066 4.54369 77.4422 4.5905 78.0002C4.63731 78.5583 4.96966 78.8836 5.76686 78.8168L11.8575 78.3059C12.6547 78.239 12.9282 77.8628 12.8814 77.3048Z" fill="black"/>
<path d="M14.0149 72.7373L2.82312 72.3074L2.90787 70.1011L9.67264 68.6476L9.67387 68.6157L2.97481 68.3583L3.03499 66.7915L14.2267 67.2214L14.1573 69.0281L5.9063 70.8247L5.90507 70.8567L14.075 71.1705L14.0149 72.7373Z" fill="black"/>
<path d="M11.6391 59.2649C11.4219 60.2656 10.4513 60.8899 9.45065 60.6727C8.44996 60.4555 7.82564 59.4849 8.04287 58.4843C8.2601 57.4836 9.23064 56.8592 10.2313 57.0765C11.232 57.2937 11.8563 58.2642 11.6391 59.2649Z" fill="black"/>
<path d="M17.3182 52.7033L6.92482 48.5298L8.65979 44.2092L10.1446 44.8054L9.06542 47.4928L11.9607 48.6554L12.8073 46.547L14.2921 47.1432L13.4455 49.2516L17.974 51.0701L17.3182 52.7033Z" fill="black"/>
<path d="M21.0179 44.8234C20.1965 46.3436 18.8468 46.6874 17.2703 45.8355L12.0901 43.0364C10.5136 42.1845 10.0614 40.8672 10.8829 39.347C11.7044 37.8267 13.054 37.483 14.6306 38.3349L19.8107 41.1339C21.3873 41.9858 21.8394 43.3031 21.0179 44.8234ZM19.6103 44.0628C19.8765 43.5701 19.7764 43.1159 19.0726 42.7356L13.6954 39.83C12.9916 39.4497 12.5568 39.6149 12.2906 40.1076C12.0243 40.6002 12.1245 41.0544 12.8283 41.4348L18.2055 44.3403C18.9093 44.7206 19.3441 44.5554 19.6103 44.0628Z" fill="black"/>
<path d="M23.0089 40.9536L13.8591 34.4944L15.3632 32.3638C16.4151 30.8737 17.56 30.7223 18.9717 31.7189L19.5338 32.1156C20.4749 32.78 20.8639 33.5051 20.6732 34.3301L20.6994 34.3486C21.4291 33.7866 22.2749 34.0311 23.3075 34.7601L24.9152 35.895C25.3597 36.2088 25.6957 36.4264 26.137 36.5225L25.1035 37.9865C24.8129 37.8988 24.6322 37.8496 23.8872 37.3236L22.2141 36.1425C21.3644 35.5427 20.9146 35.5973 20.4532 36.2509L20.1026 36.7476L24.0239 39.5158L23.0089 40.9536ZM18.7955 35.8248L19.1646 35.302C19.5429 34.7661 19.5383 34.2732 18.8063 33.7565L18.1005 33.2582C17.4469 32.7968 17.0025 32.816 16.6426 33.3258L16.1813 33.9793L18.7955 35.8248Z" fill="black"/>
<path d="M27.0346 35.2907L18.8339 27.6625L20.5448 25.8232L27.1769 30.4627L27.1987 30.4393L22.0922 24.1597L23.8031 22.3204L32.0038 29.9485L30.8704 31.1669L24.6613 25.3913L24.6395 25.4147L29.9769 32.1276L28.9743 33.2054L21.8934 28.367L21.8716 28.3904L28.0807 34.166L27.0346 35.2907Z" fill="black"/>
<path d="M32.7318 29.3081L26.983 19.5245L28.8176 18.002L37.3736 25.456L36.0192 26.5799L34.3527 25.0729L34.3732 25.0975L32.8341 26.3747L33.9877 28.2659L32.7318 29.3081ZM32.0235 25.0722L33.2424 24.0606L29.1038 20.3012L29.0792 20.3216L32.0235 25.0722Z" fill="black"/>
<path d="M39.1453 24.2661L33.8607 16.2516L32.3246 17.2644L31.4438 15.9287L35.9854 12.9341L36.8662 14.2698L35.33 15.2827L40.6146 23.2973L39.1453 24.2661Z" fill="black"/>
<path d="M43.4297 21.5714L38.1447 11.6967L39.6965 10.8662L44.9815 20.7409L43.4297 21.5714Z" fill="black"/>
<path d="M49.5285 18.7586C47.9336 19.4236 46.6682 18.8417 45.9786 17.1877L43.7129 11.7531C43.0233 10.0991 43.5005 8.79067 45.0955 8.12571C46.6904 7.46076 47.9558 8.04264 48.6453 9.69665L50.9111 15.1312C51.6007 16.7852 51.1234 18.0937 49.5285 18.7586ZM48.9128 17.2818C49.4297 17.0663 49.6376 16.6503 49.3297 15.9119L46.9778 10.2705C46.6699 9.53215 46.228 9.38701 45.7112 9.60251C45.1943 9.818 44.9864 10.234 45.2942 10.9724L47.6462 16.6138C47.9541 17.3522 48.3959 17.4973 48.9128 17.2818Z" fill="black"/>
<path d="M53.4943 17.0003L50.4824 6.21284L52.6091 5.61908L56.0608 11.6158L56.0917 11.6071L54.2889 5.15009L55.7991 4.72844L58.8109 15.5159L57.0695 16.0021L52.8367 8.69518L52.8059 8.70379L55.0045 16.5786L53.4943 17.0003Z" fill="black"/>
<path d="M65.6022 10.6286C64.5829 10.7267 63.6925 9.99256 63.5944 8.97327C63.4963 7.95398 64.2304 7.06357 65.2497 6.96549C66.269 6.86741 67.1594 7.6015 67.2575 8.6208C67.3556 9.64009 66.6215 10.5305 65.6022 10.6286Z" fill="black"/>
</g>
<defs>
<clipPath id="clip0_48_2309">
<rect width="144" height="144" fill="white"/>
</clipPath>
</defs>
</svg>
