<svg width="41" height="40" viewBox="0 0 41 40" fill="none" xmlns="http://www.w3.org/2000/svg">
<path d="M26.2951 21.4832L28.8201 35.6932C28.8484 35.8605 28.8249 36.0325 28.7528 36.1861C28.6807 36.3397 28.5634 36.4676 28.4166 36.5528C28.2698 36.638 28.1006 36.6763 27.9314 36.6627C27.7623 36.649 27.6013 36.5841 27.4701 36.4765L21.5034 31.9982C21.2154 31.783 20.8655 31.6667 20.5059 31.6667C20.1464 31.6667 19.7964 31.783 19.5084 31.9982L13.5317 36.4748C13.4006 36.5822 13.2398 36.6471 13.0709 36.6607C12.902 36.6744 12.7329 36.6362 12.5862 36.5513C12.4395 36.4663 12.3222 36.3387 12.2499 36.1854C12.1777 36.0321 12.1539 35.8603 12.1817 35.6932L14.7051 21.4832" stroke="black" stroke-width="2" stroke-linecap="round" stroke-linejoin="round"/>
<path d="M20.5 23.3333C26.0228 23.3333 30.5 18.8561 30.5 13.3333C30.5 7.8104 26.0228 3.33325 20.5 3.33325C14.9772 3.33325 10.5 7.8104 10.5 13.3333C10.5 18.8561 14.9772 23.3333 20.5 23.3333Z" stroke="black" stroke-width="2" stroke-linecap="round" stroke-linejoin="round"/>
</svg>
