<svg width="40" height="40" viewBox="0 0 40 40" fill="none" xmlns="http://www.w3.org/2000/svg">
<path d="M19.9999 3.33325C29.2049 3.33325 36.6666 10.7949 36.6666 19.9999C36.6666 29.2049 29.2049 36.6666 19.9999 36.6666C10.7949 36.6666 3.33325 29.2049 3.33325 19.9999C3.33325 10.7949 10.7949 3.33325 19.9999 3.33325ZM19.9999 6.66659C16.4637 6.66659 13.0723 8.07134 10.5718 10.5718C8.07134 13.0723 6.66659 16.4637 6.66659 19.9999C6.66659 23.5361 8.07134 26.9275 10.5718 29.428C13.0723 31.9285 16.4637 33.3333 19.9999 33.3333C23.5361 33.3333 26.9275 31.9285 29.428 29.428C31.9285 26.9275 33.3333 23.5361 33.3333 19.9999C33.3333 16.4637 31.9285 13.0723 29.428 10.5718C26.9275 8.07134 23.5361 6.66659 19.9999 6.66659ZM19.9999 9.99992C20.4081 9.99997 20.8021 10.1498 21.1072 10.4211C21.4123 10.6924 21.6072 11.0662 21.6549 11.4716L21.6666 11.6666V19.3099L26.1783 23.8216C26.4772 24.1215 26.6507 24.524 26.6636 24.9472C26.6766 25.3705 26.5279 25.7828 26.2478 26.1004C25.9678 26.418 25.5773 26.6171 25.1558 26.6573C24.7343 26.6974 24.3132 26.5756 23.9783 26.3166L23.8216 26.1783L18.8216 21.1783C18.5626 20.919 18.3962 20.5816 18.3483 20.2183L18.3333 19.9999V11.6666C18.3333 11.2246 18.5088 10.8006 18.8214 10.4881C19.134 10.1755 19.5579 9.99992 19.9999 9.99992Z" fill="black"/>
</svg>
