<svg width="41" height="40" viewBox="0 0 41 40" fill="none" xmlns="http://www.w3.org/2000/svg">
<path d="M32.1666 6.66675H8.83325C7.50717 6.66675 6.2354 7.19353 5.29772 8.13121C4.36004 9.0689 3.83325 10.3407 3.83325 11.6667V28.3334C3.83325 29.6595 4.36004 30.9313 5.29772 31.8689C6.2354 32.8066 7.50717 33.3334 8.83325 33.3334H32.1666C33.4927 33.3334 34.7644 32.8066 35.7021 31.8689C36.6398 30.9313 37.1666 29.6595 37.1666 28.3334V11.6667C37.1666 10.3407 36.6398 9.0689 35.7021 8.13121C34.7644 7.19353 33.4927 6.66675 32.1666 6.66675ZM31.4833 10.0001L21.6833 19.8001C21.5283 19.9563 21.344 20.0803 21.1409 20.1649C20.9378 20.2495 20.7199 20.2931 20.4999 20.2931C20.2799 20.2931 20.0621 20.2495 19.859 20.1649C19.6559 20.0803 19.4715 19.9563 19.3166 19.8001L9.51658 10.0001H31.4833ZM33.8333 28.3334C33.8333 28.7754 33.6577 29.1994 33.3451 29.5119C33.0325 29.8245 32.6086 30.0001 32.1666 30.0001H8.83325C8.39122 30.0001 7.9673 29.8245 7.65474 29.5119C7.34218 29.1994 7.16659 28.7754 7.16659 28.3334V12.3501L16.9666 22.1501C17.9041 23.0864 19.1749 23.6123 20.4999 23.6123C21.8249 23.6123 23.0957 23.0864 24.0333 22.1501L33.8333 12.3501V28.3334Z" fill="black"/>
</svg>
