<svg width="145" height="144" viewBox="0 0 145 144" fill="none" xmlns="http://www.w3.org/2000/svg">
<g clip-path="url(#clip0_48_967)">
<rect x="24.5" y="24" width="96" height="96" rx="48" fill="url(#paint0_linear_48_967)"/>
<path d="M89.3615 53.7788C89.6156 53.7788 89.8443 53.6991 90.0222 53.5396C90.2001 53.3801 90.3018 53.1674 90.3018 52.875C90.3018 52.6623 90.2255 52.4496 90.073 52.2901C89.9206 52.1306 89.7427 52.0509 89.4885 52.0509C89.3107 52.0509 89.1836 52.0775 89.0819 52.1306C88.9803 52.1838 88.8786 52.237 88.8278 52.3167C88.777 52.3965 88.7007 52.5028 88.6499 52.6357C88.5991 52.7686 88.5483 52.875 88.4974 52.9813C88.472 53.0345 88.4212 53.0877 88.345 53.1142C88.2687 53.1408 88.1925 53.1674 88.0908 53.1674C87.9892 53.1674 87.8875 53.1142 87.7859 53.0345C87.6842 52.9282 87.6588 52.8218 87.6588 52.6623C87.6588 52.5028 87.7096 52.3433 87.7859 52.1838C87.8621 52.0243 87.9892 51.8648 88.1671 51.7053C88.345 51.5458 88.5483 51.4395 88.777 51.3331C89.0311 51.2534 89.3107 51.2002 89.6156 51.2002C89.8951 51.2002 90.1239 51.2268 90.3526 51.3065C90.5813 51.3863 90.7592 51.4926 90.9371 51.6255C91.0895 51.7585 91.2166 51.9445 91.2928 52.1306C91.3691 52.3167 91.4199 52.5294 91.4199 52.7421C91.4199 53.0345 91.3691 53.2737 91.242 53.4864C91.115 53.6991 90.9625 53.8852 90.7338 54.0978C90.9371 54.2308 91.1404 54.3637 91.2674 54.5232C91.4199 54.6827 91.5216 54.8422 91.5978 55.0283C91.674 55.2144 91.6995 55.427 91.6995 55.6397C91.6995 55.9056 91.6486 56.1448 91.547 56.4107C91.4453 56.6499 91.2928 56.8626 91.115 57.0753C90.9117 57.2613 90.6829 57.4208 90.4288 57.5272C90.1493 57.6335 89.8697 57.6867 89.5394 57.6867C89.209 57.6867 88.904 57.6335 88.6499 57.5006C88.3958 57.3677 88.1671 57.2348 88.0146 57.0487C87.8367 56.8626 87.7096 56.6765 87.6334 56.4638C87.5572 56.2777 87.5063 56.0916 87.5063 55.9587C87.5063 55.7992 87.5572 55.6663 87.6588 55.56C87.7605 55.4536 87.8875 55.4005 88.04 55.4005C88.1163 55.4005 88.1925 55.427 88.2687 55.4802C88.345 55.5334 88.3958 55.5865 88.4212 55.6397C88.5737 56.0385 88.7262 56.3309 88.8786 56.5436C89.0311 56.7297 89.2852 56.836 89.5648 56.836C89.7427 56.836 89.8951 56.7828 90.0476 56.7031C90.2001 56.6233 90.3272 56.4904 90.4288 56.3043C90.5305 56.1182 90.5813 55.9321 90.5813 55.6929C90.5813 55.3473 90.505 55.0815 90.3272 54.8954C90.1493 54.7093 89.8951 54.6029 89.5902 54.6029C89.5394 54.6029 89.4377 54.6029 89.3361 54.6295C89.209 54.6295 89.1582 54.6561 89.1074 54.6561C88.9549 54.6561 88.8278 54.6295 88.7516 54.5498C88.6753 54.47 88.6245 54.3637 88.6245 54.2308C88.6245 54.0978 88.6753 53.9915 88.777 53.8852C88.8786 53.8054 89.0311 53.7523 89.209 53.7523L89.3615 53.7788Z" fill="white"/>
<path d="M75.9843 79.2648C75.2227 79.2648 74.6039 78.6577 74.6039 77.9106V65.1163C74.6039 64.1591 73.7947 63.3653 72.8189 63.3653H65.8694C63.3466 63.3653 61.2998 61.3574 61.2998 58.8826C61.2998 56.4078 63.3466 54.3999 65.8694 54.3999H79.7923C82.3151 54.3999 84.3619 56.4078 84.3619 58.8826C84.3619 61.3574 82.3151 63.3653 79.7923 63.3653C79.0307 63.3653 78.4119 62.7582 78.4119 62.0111C78.4119 61.264 79.0307 60.657 79.7923 60.657C80.7681 60.657 81.5773 59.8632 81.5773 58.9059C81.5773 57.9487 80.7681 57.1549 79.7923 57.1549H65.8694C64.8936 57.1549 64.0844 57.9487 64.0844 58.9059C64.0844 59.8632 64.8936 60.657 65.8694 60.657H72.8189C75.3417 60.657 77.3885 62.6648 77.3885 65.1397V77.934C77.3647 78.6577 76.7459 79.2648 75.9843 79.2648Z" fill="white"/>
<path d="M78.97 91.1568H65.6662C63.2556 91.1568 61.2998 89.0636 61.2998 86.4836C61.2998 83.9036 63.2556 81.8104 65.6662 81.8104C66.3939 81.8104 66.9852 82.4432 66.9852 83.2221C66.9852 84.001 66.3939 84.6338 65.6662 84.6338C64.7338 84.6338 63.9606 85.4613 63.9606 86.4593C63.9606 87.4572 64.7338 88.2847 65.6662 88.2847H78.97C79.9024 88.2847 80.6756 87.4572 80.6756 86.4593C80.6756 85.4613 79.9024 84.6338 78.97 84.6338H72.3294C69.9188 84.6338 67.9631 82.5406 67.9631 79.9606V66.6225C67.9631 65.8437 68.5543 65.2108 69.2821 65.2108C70.0098 65.2108 70.6011 65.8437 70.6011 66.6225V79.9606C70.6011 80.9585 71.3743 81.7861 72.3067 81.7861H78.9472C81.3578 81.7861 83.3136 83.8793 83.3136 86.4593C83.3136 89.0636 81.3578 91.1568 78.97 91.1568Z" fill="white"/>
<path d="M73.8682 0.833539L76.3605 0.968928C78.1179 1.06439 78.8043 1.999 78.7141 3.66056L78.6647 4.57122C78.5979 5.8014 78.1249 6.54484 77.1498 6.79632C78.1559 7.15542 78.4942 8.00703 78.4292 9.20526L78.3347 10.9467C78.3078 11.442 78.2986 11.9062 78.4855 12.3009L77.2234 12.2323C77.0969 11.905 77.0486 11.6139 77.0894 10.863L77.1847 9.10562C77.2532 7.84347 76.6838 7.41195 75.6453 7.35554L74.7666 7.3078L74.5074 12.0848L73.2612 12.0171L73.8682 0.833539ZM74.8282 6.17347L75.7548 6.22381C76.7454 6.27762 77.3538 5.9902 77.4197 4.77599L77.4778 3.70556C77.5325 2.69905 77.1936 2.15186 76.267 2.10152L75.0528 2.03556L74.8282 6.17347Z" fill="black"/>
<path d="M81.9583 6.4898L84.6602 6.92019L84.4842 8.02627L81.7822 7.59588L81.1561 11.5304L84.4743 12.0589L84.2957 13.1808L79.7451 12.4559L81.5053 1.39513L86.056 2.11998L85.8774 3.24187L82.5592 2.71332L81.9583 6.4898Z" fill="black"/>
<path d="M90.8738 3.1497C92.5435 3.59448 93.0285 4.88272 92.5924 6.52168L92.3331 7.49577L91.189 7.19102L91.4647 6.15507C91.724 5.18098 91.4938 4.49047 90.6125 4.25573C89.7467 4.0251 89.1884 4.50557 88.9291 5.47967L87.4067 11.2005C87.1474 12.1746 87.393 12.8693 88.2589 13.0999C89.1401 13.3346 89.683 12.85 89.9422 11.876L90.3167 10.4689L91.4608 10.7737L91.1028 12.1189C90.6666 13.7578 89.6056 14.6342 87.9358 14.1895C86.2815 13.7488 85.7965 12.4605 86.2326 10.8216L87.7222 5.22441C88.1584 3.58545 89.2194 2.70904 90.8738 3.1497Z" fill="black"/>
<path d="M97.1916 11.871L94.6252 10.8776L92.8072 15.5783L91.6434 15.1278L95.6833 4.68177L96.8471 5.13229L95.0292 9.83299L97.5956 10.8264L99.4136 6.12574L100.577 6.57626L96.5375 17.0223L95.3736 16.5718L97.1916 11.871Z" fill="black"/>
<path d="M101.857 12.6743L104.289 13.928L103.776 14.9237L101.344 13.67L99.5199 17.2118L102.506 18.7514L101.986 19.7613L97.8905 17.6498L103.019 7.69295L107.115 9.80447L106.595 10.8144L103.608 9.27473L101.857 12.6743Z" fill="black"/>
<path d="M109.303 11.0679L111.391 12.4359C112.863 13.4006 112.988 14.5536 112.076 15.9458L111.577 16.7088C110.902 17.7396 110.12 18.1454 109.151 17.8736C109.841 18.6891 109.706 19.5957 109.049 20.5997L108.094 22.0588C107.822 22.4738 107.581 22.8708 107.545 23.306L106.488 22.6133C106.542 22.2666 106.647 21.9906 107.059 21.3614L108.023 19.8889C108.715 18.8314 108.439 18.1722 107.569 17.6022L106.833 17.1199L104.213 21.1225L103.169 20.4385L109.303 11.0679ZM107.455 16.1695L108.231 16.6781C109.061 17.2218 109.731 17.2785 110.397 16.2612L110.985 15.3643C111.537 14.5209 111.518 13.8775 110.742 13.3689L109.725 12.7024L107.455 16.1695Z" fill="black"/>
<path d="M117.601 16.8524C118.938 17.9472 118.848 19.3209 117.774 20.6336L117.136 21.4137L116.22 20.6636L116.898 19.8339C117.537 19.0537 117.612 18.3297 116.907 17.7519C116.213 17.1843 115.507 17.3913 114.868 18.1715L111.12 22.7535C110.481 23.5337 110.418 24.2678 111.112 24.8355C111.817 25.4133 112.512 25.1961 113.15 24.4159L114.072 23.289L114.988 24.0391L114.107 25.1165C113.033 26.4292 111.704 26.7892 110.367 25.6945C109.043 24.6098 109.133 23.2361 110.207 21.9234L113.875 17.4405C114.948 16.1278 116.277 15.7678 117.601 16.8524Z" fill="black"/>
<path d="M119.757 27.3993L117.827 25.4372L114.235 28.9728L113.36 28.083L121.342 20.226L122.217 21.1158L118.625 24.6515L120.555 26.6136L124.147 23.0779L125.022 23.9677L117.04 31.8247L116.165 30.9349L119.757 27.3993Z" fill="black"/>
<path d="M123.672 30.0399L125.375 32.1816L124.498 32.879L122.796 30.7373L119.678 33.218L121.769 35.8481L120.88 36.5554L118.013 32.9484L126.777 25.9747L129.644 29.5817L128.755 30.289L126.664 27.6589L123.672 30.0399Z" fill="black"/>
<path d="M127.439 42.8095L126.045 40.3441L123.869 41.0788L123.302 40.0759L134.105 36.4277L134.995 38.0016L126.302 45.3829L125.688 44.2965L127.439 42.8095ZM133.289 37.8453L127.057 39.9555L128.285 42.1285L133.289 37.8453Z" fill="black"/>
<path d="M136.868 41.6123L137.838 43.86C138.535 45.476 137.879 46.5788 136.322 47.2513L135.088 47.7842C133.457 48.4883 132.276 48.0924 131.572 46.4617L131.135 45.448L127.081 47.1989L126.586 46.0531L136.868 41.6123ZM132.163 45.004L132.6 46.0176C132.968 46.8697 133.542 47.1097 134.526 46.6847L135.892 46.0947C136.832 45.6887 137.157 45.1478 136.795 44.3104L136.32 43.2086L132.163 45.004Z" fill="black"/>
<path d="M139.688 48.4881L140.417 50.825C140.941 52.5052 140.172 53.533 138.553 54.0384L137.27 54.439C135.575 54.9682 134.442 54.4505 133.913 52.7551L133.584 51.7012L129.369 53.0172L128.997 51.8258L139.688 48.4881ZM134.653 51.3674L134.982 52.4213C135.258 53.3072 135.804 53.6061 136.827 53.2867L138.248 52.8432C139.225 52.5381 139.604 52.0342 139.333 51.1636L138.975 50.018L134.653 51.3674Z" fill="black"/>
<path d="M131.681 62.2351L130.792 57.8767L141.766 55.6381L142.016 56.8609L132.155 58.8725L132.794 62.0081L131.681 62.2351Z" fill="black"/>
<path d="M142.944 62.0385L143.098 63.277L131.984 64.6592L131.83 63.4207L142.944 62.0385Z" fill="black"/>
<path d="M143.685 69.1141C143.753 70.8408 142.683 71.7317 140.973 71.7993L135.185 72.0279C134.498 72.0551 133.885 71.9352 133.426 71.6651C133.159 71.8038 133.087 72.0148 133.101 72.3665L133.107 72.5264L132.004 72.5699L131.996 72.3621C131.968 71.6586 132.206 71.1849 132.659 70.9108C132.438 70.5673 132.291 70.1087 132.27 69.5651C132.202 67.8544 133.288 66.9629 134.983 66.8959L140.77 66.6673C142.481 66.5997 143.617 67.4034 143.685 69.1141ZM142.55 69.1589C142.515 68.2636 141.89 67.856 140.883 67.8958L134.967 68.1295C133.944 68.1699 133.37 68.625 133.405 69.5203C133.441 70.4315 134.049 70.8239 135.072 70.7834L140.987 70.5497C141.995 70.5099 142.586 70.0702 142.55 69.1589Z" fill="black"/>
<path d="M143.556 75.614L135.016 75.0274C134.01 74.9583 133.376 75.3157 133.314 76.2256C133.252 77.1195 133.831 77.5602 134.837 77.6293L143.377 78.2159L143.297 79.3812L134.821 78.7989C133.129 78.6827 132.049 77.8227 132.168 76.0988C132.285 74.3908 133.472 73.6865 135.164 73.8027L143.64 74.3849L143.556 75.614Z" fill="black"/>
<path d="M144.755 85.0361L144.544 86.2499L143.175 84.5017L143.323 83.6504L144.755 85.0361ZM137.87 82.4107L137.402 85.1064L136.299 84.9146L136.767 82.2189L132.842 81.5369L132.267 84.8473L131.148 84.6529L131.936 80.1128L142.971 82.0302L142.182 86.5703L141.063 86.3758L141.638 83.0653L137.87 82.4107Z" fill="black"/>
<path d="M136.518 88.8746L135.782 91.5099L134.703 91.2086L135.439 88.5733L131.602 87.5013L130.699 90.7376L129.604 90.432L130.843 85.9936L141.63 89.0071L140.391 93.4455L139.297 93.1398L140.201 89.9035L136.518 88.8746Z" fill="black"/>
<path d="M133.867 99.492C133.49 100.34 132.497 100.72 131.649 100.342C130.802 99.9644 130.421 98.9712 130.799 98.1236C131.176 97.2759 132.169 96.8953 133.017 97.2732C133.864 97.6512 134.245 98.6444 133.867 99.492Z" fill="black"/>
<path d="M133.777 108.278L132.429 110.379C131.479 111.86 130.328 111.996 128.927 111.097L128.16 110.604C127.123 109.939 126.71 109.16 126.972 108.188C126.164 108.885 125.256 108.759 124.247 108.111L122.779 107.169C122.362 106.901 121.962 106.664 121.527 106.631L122.209 105.567C122.556 105.619 122.833 105.721 123.466 106.127L124.947 107.078C126.011 107.761 126.667 107.478 127.229 106.603L127.704 105.862L123.678 103.278L124.352 102.227L133.777 108.278ZM128.66 106.476L128.159 107.257C127.623 108.092 127.573 108.763 128.596 109.42L129.498 109.999C130.346 110.544 130.989 110.519 131.49 109.738L132.147 108.715L128.66 106.476Z" fill="black"/>
<path d="M124.86 112.53L123.152 114.668L122.277 113.968L123.985 111.831L120.873 109.342L118.776 111.967L117.889 111.258L120.765 107.658L129.512 114.653L126.636 118.253L125.749 117.543L127.846 114.918L124.86 112.53Z" fill="black"/>
<path d="M123.371 121.931C122.161 123.165 120.802 122.952 119.591 121.765L118.871 121.059L119.7 120.213L120.465 120.964C121.185 121.67 121.899 121.81 122.537 121.159C123.165 120.519 123.022 119.796 122.302 119.09L118.076 114.944C117.356 114.238 116.631 114.11 116.004 114.75C115.366 115.401 115.52 116.112 116.239 116.818L117.279 117.838L116.45 118.684L115.456 117.709C114.246 116.521 114.006 115.165 115.216 113.931C116.414 112.709 117.773 112.922 118.984 114.109L123.119 118.165C124.33 119.353 124.569 120.709 123.371 121.931Z" fill="black"/>
<path d="M112.678 123.136L114.805 121.388L111.606 117.493L112.571 116.701L119.678 125.357L118.713 126.149L115.515 122.254L113.389 124.001L116.587 127.896L115.623 128.689L108.516 120.033L109.48 119.24L112.678 123.136Z" fill="black"/>
<path d="M109.692 126.805L107.406 128.309L106.791 127.373L109.076 125.869L106.887 122.54L104.081 124.388L103.457 123.439L107.306 120.905L113.459 130.263L109.61 132.797L108.986 131.847L111.793 130L109.692 126.805Z" fill="black"/>
<path d="M107.437 134.084L105.22 135.232C103.658 136.042 102.592 135.585 101.827 134.107L101.408 133.297C100.842 132.203 100.872 131.323 101.585 130.611C100.536 130.812 99.8122 130.25 99.2605 129.184L98.4587 127.636C98.2307 127.195 98.0031 126.79 97.6419 126.545L98.7642 125.964C99.0392 126.181 99.2284 126.408 99.5741 127.076L100.383 128.639C100.964 129.761 101.674 129.844 102.597 129.365L103.379 128.961L101.179 124.712L102.287 124.138L107.437 134.084ZM103.901 129.969L103.077 130.396C102.196 130.853 101.818 131.409 102.377 132.489L102.87 133.441C103.333 134.336 103.903 134.636 104.727 134.209L105.806 133.649L103.901 129.969Z" fill="black"/>
<path d="M98.3139 138.48C96.7035 139.107 95.5521 138.353 94.9376 136.772L94.5723 135.833L95.6757 135.403L96.0642 136.403C96.4294 137.342 97.0225 137.764 97.8724 137.433C98.7074 137.108 98.8748 136.39 98.5096 135.451L96.3645 129.933C95.9992 128.994 95.3912 128.578 94.5562 128.903C93.7063 129.234 93.5538 129.945 93.9191 130.885L94.4467 132.242L93.3432 132.671L92.8389 131.374C92.2243 129.793 92.564 128.459 94.1744 127.832C95.7699 127.212 96.9213 127.965 97.5358 129.546L99.6345 134.945C100.249 136.525 99.9093 137.859 98.3139 138.48Z" fill="black"/>
<path d="M88.0711 135.169L90.7291 134.456L89.4243 129.588L90.6297 129.264L93.5292 140.083L92.3239 140.406L91.0191 135.538L88.361 136.251L89.6658 141.119L88.4605 141.442L85.5609 130.624L86.7663 130.301L88.0711 135.169Z" fill="black"/>
<path d="M83.8404 137.273L81.1374 137.697L80.964 136.591L83.667 136.167L83.0503 132.231L79.7309 132.751L79.555 131.629L84.1074 130.915L85.8411 141.98L81.2887 142.694L81.1129 141.572L84.4323 141.051L83.8404 137.273Z" fill="black"/>
<path d="M70.8278 134.248L73.6598 134.253L74.0956 131.998L75.2476 131.999L73.0847 143.196L71.2767 143.193L69.1516 131.989L70.3996 131.991L70.8278 134.248ZM72.2551 141.786L73.498 135.325L71.002 135.32L72.2551 141.786Z" fill="black"/>
<path d="M67.1833 143.04L64.7495 142.776C62.9998 142.587 62.3641 141.472 62.5467 139.785L62.6914 138.449C62.8826 136.684 63.8096 135.851 65.5753 136.042L66.6729 136.161L67.1483 131.771L68.389 131.905L67.1833 143.04ZM66.5523 137.274L65.4547 137.155C64.5321 137.055 64.0402 137.437 63.9248 138.502L63.7646 139.982C63.6544 141 63.9651 141.549 64.8718 141.647L66.0648 141.776L66.5523 137.274Z" fill="black"/>
<path d="M59.8425 142.111L57.4494 141.596C55.7289 141.225 55.2126 140.05 55.5695 138.392L55.8523 137.078C56.2261 135.342 57.2347 134.61 58.9709 134.984L60.0501 135.216L60.9794 130.899L62.1994 131.162L59.8425 142.111ZM59.8144 136.311L58.7352 136.079C57.828 135.883 57.2991 136.211 57.0735 137.259L56.7604 138.714C56.5449 139.715 56.7969 140.293 57.6885 140.485L58.8616 140.738L59.8144 136.311Z" fill="black"/>
<path d="M51.8262 128.378L56.0574 129.75L52.6064 140.405L51.4193 140.02L54.5202 130.446L51.4762 129.459L51.8262 128.378Z" fill="black"/>
<path d="M46.4247 138.268L45.2712 137.791L49.5446 127.438L50.698 127.915L46.4247 138.268Z" fill="black"/>
<path d="M39.9002 135.421C38.3651 134.628 38.1181 133.257 38.9034 131.736L41.5603 126.589C41.8758 125.978 42.2827 125.504 42.744 125.238C42.7551 124.938 42.607 124.771 42.2943 124.609L42.1521 124.536L42.6585 123.555L42.8433 123.65C43.4688 123.974 43.7636 124.414 43.7782 124.944C44.1863 124.921 44.6572 125.02 45.1405 125.27C46.6615 126.055 46.9011 127.44 46.1232 128.947L43.4663 134.094C42.681 135.615 41.4212 136.207 39.9002 135.421ZM40.4213 134.411C41.2174 134.823 41.88 134.481 42.3424 133.585L45.058 128.325C45.5277 127.415 45.4155 126.69 44.6194 126.279C43.8092 125.86 43.1681 126.195 42.6984 127.105L39.9828 132.366C39.5204 133.262 39.6111 133.993 40.4213 134.411Z" fill="black"/>
<path d="M34.4042 132.152L39.1279 125.013C39.6841 124.173 39.6861 123.445 38.9258 122.941C38.1788 122.446 37.5098 122.732 36.9535 123.573L32.2298 130.712L31.256 130.067L35.9444 122.982C36.8803 121.567 38.1608 121.053 39.6015 122.007C41.0288 122.952 41.0556 124.332 40.1197 125.747L35.4313 132.832L34.4042 132.152Z" fill="black"/>
<path d="M25.5993 128.525L24.6481 127.742L26.8437 127.415L27.5108 127.964L25.5993 128.525ZM31.28 123.834L29.1675 122.095L29.8789 121.23L31.9913 122.969L34.5218 119.891L31.9276 117.756L32.6492 116.879L36.207 119.807L29.0931 128.458L25.5353 125.529L26.2569 124.652L28.8511 126.787L31.28 123.834Z" fill="black"/>
<path d="M26.3425 119.48L24.4122 117.541L25.2056 116.75L27.1359 118.689L29.958 115.877L27.5875 113.496L28.3922 112.694L31.6432 115.96L23.7094 123.865L20.4584 120.599L21.2631 119.798L23.6336 122.179L26.3425 119.48Z" fill="black"/>
<path d="M18.402 111.941C17.8495 111.196 18.0059 110.144 18.7513 109.591C19.4967 109.038 20.5484 109.194 21.1008 109.94C21.6533 110.686 21.4969 111.738 20.7515 112.291C20.0061 112.843 18.9544 112.687 18.402 111.941Z" fill="black"/>
<path d="M10.8066 107.564L9.63823 105.358C8.81437 103.803 9.26146 102.733 10.7316 101.954L11.5373 101.526C12.6258 100.949 13.5066 100.971 14.2245 101.677C14.0138 100.63 14.5691 99.9008 15.6293 99.3387L17.1701 98.5217C17.6083 98.2894 18.0108 98.0579 18.2527 97.6942L18.8443 98.8112C18.629 99.0883 18.4045 99.2798 17.7401 99.632L16.1852 100.456C15.0685 101.049 14.9922 101.759 15.479 102.678L15.8909 103.456L20.1176 101.215L20.7018 102.318L10.8066 107.564ZM14.8873 103.988L14.4529 103.168C13.9885 102.291 13.4287 101.918 12.3544 102.488L11.4072 102.99C10.5167 103.462 10.2225 104.035 10.6569 104.855L11.2261 105.929L14.8873 103.988Z" fill="black"/>
<path d="M11.4757 97.6906L10.4547 95.1522L11.4937 94.7339L12.5146 97.2723L16.2104 95.7845L14.9566 92.6672L16.0104 92.2429L17.7299 96.5181L7.34022 100.701L5.62072 96.4256L6.67453 96.0013L7.92833 99.1186L11.4757 97.6906Z" fill="black"/>
<path d="M4.02857 91.7741C3.55079 90.1135 4.40586 89.0347 6.03563 88.5654L7.00427 88.2865L7.33164 89.4243L6.3015 89.721C5.33286 89.9999 4.8592 90.5526 5.11136 91.429C5.3591 92.2901 6.05838 92.5216 7.02702 92.2427L12.7158 90.6044C13.6845 90.3255 14.1537 89.7575 13.906 88.8964C13.6538 88.02 12.959 87.8038 11.9903 88.0827L10.5912 88.4857L10.2638 87.3478L11.6014 86.9626C13.2312 86.4933 14.5287 86.9522 15.0065 88.6128C15.4798 90.2581 14.6247 91.3368 12.995 91.8061L7.42916 93.4089C5.79939 93.8783 4.50193 93.4194 4.02857 91.7741Z" fill="black"/>
<path d="M8.25176 81.8506L8.72033 84.5624L13.6866 83.7035L13.8991 84.9333L2.86292 86.8419L2.65043 85.6121L7.61671 84.7532L7.14815 82.0414L2.18187 82.9003L1.96938 81.6705L13.0056 79.7619L13.218 80.9917L8.25176 81.8506Z" fill="black"/>
<path d="M6.54068 77.4653L6.36115 74.7352L7.47874 74.6617L7.65826 77.3918L11.6337 77.1301L11.4132 73.7774L12.5467 73.7028L12.8491 78.3008L1.67327 79.0364L1.37092 74.4383L2.50447 74.3637L2.72493 77.7165L6.54068 77.4653Z" fill="black"/>
<path d="M1.32391 71.8091L1.41944 69.3149C1.4868 67.5562 2.41031 66.8551 4.07309 66.9188L4.98442 66.9538C6.21552 67.0009 6.96642 67.4621 7.23345 68.433C7.57642 67.4214 8.42251 67.0695 9.62163 67.1155L11.3643 67.1823C11.86 67.2013 12.3243 67.2031 12.7159 67.01L12.6676 68.2731C12.3423 68.4047 12.052 68.4576 11.3006 68.4288L9.54189 68.3614C8.27881 68.313 7.85645 68.8892 7.81665 69.9284L7.78296 70.8078L12.5635 70.9911L12.5157 72.2381L1.32391 71.8091ZM6.6478 70.7643L6.68332 69.837C6.72128 68.8457 6.42418 68.2419 5.20907 68.1953L4.13786 68.1542C3.1306 68.1156 2.5889 68.4631 2.55338 69.3904L2.50684 70.6055L6.6478 70.7643Z" fill="black"/>
<path d="M1.99989 61.7065C2.24821 59.9964 3.47153 59.3658 5.1499 59.6098L6.14742 59.7548L5.97727 60.9265L4.91642 60.7723C3.9189 60.6273 3.25974 60.9357 3.12868 61.8382C2.99992 62.7249 3.54181 63.2241 4.53933 63.3691L10.3978 64.2206C11.3953 64.3655 12.0568 64.0413 12.1855 63.1546C12.3166 62.2521 11.7724 61.7688 10.7749 61.6238L9.334 61.4144L9.50415 60.2427L10.8817 60.4429C12.56 60.6868 13.5534 61.6396 13.3051 63.3497C13.0591 65.0439 11.8358 65.6745 10.1574 65.4306L4.42562 64.5975C2.74726 64.3535 1.75387 63.4007 1.99989 61.7065Z" fill="black"/>
<path d="M9.92555 54.4288L9.23746 57.0934L14.1171 58.3546L13.8051 59.563L2.96142 56.7602L3.27346 55.5519L8.1531 56.8131L8.84119 54.1485L3.96155 52.8873L4.27359 51.6789L15.1172 54.4816L14.8052 55.69L9.92555 54.4288Z" fill="black"/>
<path d="M10.1794 49.702L11.1419 47.1409L12.1902 47.5352L11.2277 50.0963L14.9566 51.499L16.1386 48.3538L17.2019 48.7537L15.5808 53.0672L5.09795 49.124L6.71899 44.8105L7.78226 45.2105L6.60025 48.3557L10.1794 49.702Z" fill="black"/>
<path d="M19.2088 39.9057L17.807 42.3664L19.553 43.8592L18.9828 44.8602L10.3145 37.4496L11.2094 35.8787L22.0002 39.5634L21.3825 40.6478L19.2088 39.9057ZM11.9495 37.4241L16.955 41.6964L18.1905 39.5276L11.9495 37.4241Z" fill="black"/>
<path d="M13.3282 32.4498L14.7584 30.4631C15.7867 29.0347 17.0699 29.0324 18.4459 30.0239L19.5363 30.8097C20.9771 31.8479 21.2439 33.0657 20.2063 34.507L19.5612 35.403L23.144 37.9847L22.4148 38.9975L13.3282 32.4498ZM18.6526 34.7482L19.2976 33.8522C19.8398 33.0991 19.7511 32.483 18.8813 31.8563L17.6741 30.9864C16.8433 30.3877 16.2129 30.387 15.6801 31.1272L14.979 32.1011L18.6526 34.7482Z" fill="black"/>
<path d="M17.7904 26.4828L19.4197 24.6558C20.5911 23.3423 21.8675 23.4736 23.1328 24.603L24.1354 25.498C25.4604 26.6806 25.5989 27.9195 24.4169 29.245L23.6821 30.069L26.9765 33.0097L26.1459 33.9411L17.7904 26.4828ZM22.8465 29.3231L23.5813 28.4992C24.199 27.8066 24.1749 27.1846 23.3751 26.4707L22.265 25.4798C21.5011 24.7979 20.8742 24.7316 20.2672 25.4123L19.4685 26.3079L22.8465 29.3231Z" fill="black"/>
<path d="M33.656 26.3078L30.3809 29.3175L22.8062 21.0674L23.7251 20.2229L30.5315 27.6363L32.8877 25.471L33.656 26.3078Z" fill="black"/>
<path d="M27.7198 16.7236L28.7015 15.953L35.613 24.7662L34.6313 25.5367L27.7198 16.7236Z" fill="black"/>
<path d="M33.3868 12.4481C34.8311 11.4993 36.1456 11.9567 37.085 13.388L40.263 18.2302C40.6405 18.8054 40.8538 19.3927 40.8589 19.9254C41.1151 20.0825 41.3329 20.0352 41.6271 19.8419L41.7608 19.7541L42.3666 20.677L42.1927 20.7912C41.6043 21.1778 41.0761 21.2185 40.6075 20.9712C40.4274 21.3383 40.1099 21.7001 39.6552 21.9988C38.2243 22.9387 36.901 22.468 35.9704 21.0501L32.7924 16.2079C31.853 14.7766 31.956 13.3881 33.3868 12.4481ZM34.0102 13.3978C33.2613 13.8897 33.2338 14.6352 33.7869 15.4779L37.0352 20.4272C37.5971 21.2833 38.283 21.541 39.0319 21.049C39.7941 20.5483 39.817 19.825 39.2551 18.9689L36.0068 14.0197C35.4537 13.177 34.7724 12.8971 34.0102 13.3978Z" fill="black"/>
<path d="M38.9327 9.26051L42.8304 16.8816C43.2894 17.7791 43.9223 18.1381 44.7341 17.7226C45.5317 17.3143 45.6109 16.5907 45.1519 15.6933L41.2542 8.07213L42.2939 7.53991L46.1625 15.1041C46.9347 16.614 46.7541 17.9827 45.2159 18.7701C43.692 19.5502 42.4769 18.896 41.7046 17.386L37.8361 9.82189L38.9327 9.26051Z" fill="black"/>
<path d="M46.4247 3.36558L47.574 2.92176L46.7791 4.99533L45.9731 5.30658L46.4247 3.36558ZM47.7145 10.62L50.2668 9.6344L50.6699 10.6793L48.1176 11.665L49.5517 15.3819L52.6861 14.1715L53.095 15.2313L48.7964 16.8913L44.7649 6.44209L49.0635 4.78209L49.4724 5.84194L46.338 7.05236L47.7145 10.62Z" fill="black"/>
<path d="M53.934 8.46054L56.5721 7.73525L56.8687 8.81525L54.2306 9.54054L55.2858 13.3822L58.5256 12.4915L58.8265 13.587L54.3834 14.8085L51.4169 4.00851L55.86 2.78698L56.1609 3.88241L52.9211 4.77311L53.934 8.46054Z" fill="black"/>
<path d="M64.3955 5.27017C65.3166 5.15758 66.1542 5.8128 66.2667 6.73396C66.3792 7.65512 65.7239 8.49281 64.8028 8.60539C63.8816 8.71798 63.044 8.06276 62.9315 7.1416C62.8191 6.22044 63.4743 5.38276 64.3955 5.27017Z" fill="black"/>
</g>
<defs>
<linearGradient id="paint0_linear_48_967" x1="163.7" y1="-16.5333" x2="-17.1" y2="165.333" gradientUnits="userSpaceOnUse">
<stop stop-color="#9130F9"/>
<stop offset="0.354243" stop-color="#B868A1"/>
<stop offset="0.582118" stop-color="#FFCF00"/>
<stop offset="1" stop-color="#00EE5C"/>
</linearGradient>
<clipPath id="clip0_48_967">
<rect width="144" height="144" fill="white" transform="translate(0.5)"/>
</clipPath>
</defs>
</svg>
