<svg width="849" height="1571" viewBox="0 0 849 1571" fill="none" xmlns="http://www.w3.org/2000/svg">
<g opacity="0.3" filter="url(#filter0_f_307_4607)">
<path d="M536.85 300C556.24 406.029 552.32 515.247 525.315 621.42C498.309 727.593 448.746 828.64 379.455 918.793C310.165 1008.95 222.504 1086.44 121.477 1146.85C20.4507 1207.25 -91.9626 1249.39 -209.345 1270.86L-276.438 903.987C-212.393 892.275 -151.06 869.283 -95.9389 836.323C-40.818 803.364 7.01054 761.084 44.816 711.896C82.6215 662.708 109.663 607.575 124.398 549.647C139.133 491.718 141.271 432.128 130.692 374.278L536.85 300Z" fill="#FE39A8" fill-opacity="0.28"/>
</g>
<defs>
<filter id="filter0_f_307_4607" x="-576.438" y="0" width="1425.4" height="1570.86" filterUnits="userSpaceOnUse" color-interpolation-filters="sRGB">
<feFlood flood-opacity="0" result="BackgroundImageFix"/>
<feBlend mode="normal" in="SourceGraphic" in2="BackgroundImageFix" result="shape"/>
<feGaussianBlur stdDeviation="150" result="effect1_foregroundBlur_307_4607"/>
</filter>
</defs>
</svg>
