<svg width="768" height="1571" viewBox="0 0 768 1571" fill="none" xmlns="http://www.w3.org/2000/svg">
<g opacity="0.3" filter="url(#filter0_f_45_1317)">
<path d="M455.85 300C475.24 406.029 471.32 515.247 444.315 621.42C417.309 727.593 367.746 828.64 298.455 918.793C229.165 1008.95 141.504 1086.44 40.4771 1146.85C-60.5493 1207.25 -172.963 1249.39 -290.345 1270.86L-357.438 903.987C-293.393 892.275 -232.06 869.283 -176.939 836.323C-121.818 803.364 -73.9895 761.084 -36.184 711.896C1.62146 662.708 28.6634 607.575 43.398 549.647C58.1326 491.718 60.2712 432.128 49.6917 374.278L455.85 300Z" fill="#FE39A8" fill-opacity="0.28"/>
</g>
<defs>
<filter id="filter0_f_45_1317" x="-657.438" y="0" width="1425.4" height="1570.86" filterUnits="userSpaceOnUse" color-interpolation-filters="sRGB">
<feFlood flood-opacity="0" result="BackgroundImageFix"/>
<feBlend mode="normal" in="SourceGraphic" in2="BackgroundImageFix" result="shape"/>
<feGaussianBlur stdDeviation="150" result="effect1_foregroundBlur_45_1317"/>
</filter>
</defs>
</svg>
