<?xml version="1.0" encoding="UTF-8"?>
<svg id="Calque_2" xmlns="http://www.w3.org/2000/svg" version="1.1" viewBox="0 0 153.8 66">
  <!-- Generator: Adobe Illustrator 29.0.1, SVG Export Plug-In . SVG Version: 2.1.0 Build 192)  -->
  <defs>
    <style>
      .st0 {
        fill: #fff;
      }
    </style>
  </defs>
  <g id="Calque_1">
    <g>
      <path class="st0" d="M14.6,34.4c0-.9.4-1.7,1-2.3s1.4-.9,2.3-.9,1.7.3,2.3.9c.6.6,1,1.4,1,2.3v13.7c0,.9-.4,1.7-1,2.3s-1.4.9-2.3.9-1.7-.3-2.3-.9c-.6-.6-1-1.4-1-2.3v-13.7Z"/>
      <path class="st0" d="M16.2,31.6c.4-.2.8-.4,1.2-.4h1.3c.4,0,.8.3,1.1.6.3.3.6.6.8,1,.2.4.4.8.4,1.2v1.3c-.1.4-.3.8-.6,1.1-.3.3-.6.6-1,.8l-11.9,6.8c-.4.2-.8.4-1.2.4h-1.3c-.4,0-.8-.3-1.1-.6-.3-.3-.6-.6-.8-1-.2-.4-.4-.8-.4-1.2v-1.3c.1-.4.3-.8.6-1.1s.6-.6,1-.8c0,0,11.9-6.8,11.9-6.8Z"/>
      <path class="st0" d="M26.2,43.1c-.7-.4-1.3-1.2-1.5-2s0-1.7.3-2.5c.4-.7,1.1-1.3,2-1.5.8-.2,1.7,0,2.5.3l11.9,6.9c.4.2.7.5,1,.8s.5.7.6,1.1c0,.4,0,.8,0,1.3,0,.4-.2.8-.4,1.2s-.5.7-.8,1-.7.5-1.1.6c-.4,0-.8,0-1.3,0-.4,0-.8-.2-1.2-.4l-11.9-6.9h-.1Z"/>
      <path class="st0" d="M24.6,40.3c0-.4,0-.9.2-1.3s.4-.8.7-1.1c.3-.3.7-.6,1.1-.7.4-.2.8-.3,1.3-.3s.9,0,1.3.3c.4.2.8.4,1.1.7.3.3.5.7.7,1.1.2.4.2.8.2,1.3v13.7c0,.4-.1.9-.3,1.3s-.4.8-.7,1.1c-.3.3-.7.5-1.1.7s-.8.2-1.3.2-.9,0-1.3-.3c-.4-.2-.8-.4-1.1-.7-.3-.3-.5-.7-.7-1.1-.2-.4-.2-.8-.2-1.3v-13.7h0Z"/>
      <path class="st0" d="M39.6,37.3c-.4.2-.8.4-1.2.4h-1.3c-.4,0-.8-.3-1.2-.6-.3-.3-.6-.6-.8-1s-.4-.8-.4-1.2v-1.3c0-.4.3-.8.6-1.1s.6-.6,1-.8l11.9-6.8c.8-.4,1.6-.5,2.5-.3.8.2,1.5.8,2,1.5.4.7.5,1.6.3,2.5-.2.8-.8,1.5-1.5,2l-11.9,6.8h0Z"/>
      <path class="st0" d="M36.3,37.3c-.7-.4-1.3-1.2-1.5-2,0-.4,0-.8,0-1.3,0-.4.2-.8.4-1.2s.5-.7.8-1,.7-.5,1.1-.6c.8-.2,1.7,0,2.5.3l11.9,6.9c.7.4,1.3,1.2,1.5,2s0,1.7-.3,2.5-1.1,1.3-2,1.5c-.8.2-1.7,0-2.5-.3l-11.9-6.9h0Z"/>
      <path class="st0" d="M41.2,22.9c0,.9-.4,1.7-1,2.3-.6.6-1.4.9-2.3.9s-1.7-.3-2.3-.9-1-1.4-1-2.3v-13.7c0-.4,0-.9.3-1.3.2-.4.4-.8.7-1.1s.7-.6,1.1-.7c.4-.2.8-.3,1.3-.3s.9,0,1.3.3.8.4,1.1.7c.3.3.5.7.7,1.1.2.4.2.8.2,1.3v13.7h0Z"/>
      <path class="st0" d="M39.6,25.7c-.8.4-1.6.5-2.5.3-.8-.2-1.5-.8-2-1.5-.4-.8-.5-1.6-.3-2.5.2-.8.8-1.5,1.5-2l11.9-6.8c.8-.4,1.6-.5,2.4-.3.8.2,1.5.8,1.9,1.5.4.7.5,1.6.3,2.4s-.7,1.5-1.5,2l-11.9,6.8h.2Z"/>
      <path class="st0" d="M29.6,14.2c.4.2.7.5,1,.8s.5.7.6,1.2c.1.4.1.9,0,1.3,0,.4-.2.8-.4,1.2-.2.4-.5.7-.9,1s-.7.5-1.2.6c-.4.1-.9.1-1.3,0-.4,0-.8-.2-1.2-.4l-11.9-6.9c-.7-.4-1.3-1.2-1.5-2s-.1-1.7.3-2.5c.4-.7,1.2-1.3,2-1.5s1.7-.1,2.5.3l11.9,6.9h.1Z"/>
      <path class="st0" d="M31.2,17.1c0,.4,0,.9-.2,1.3s-.4.8-.7,1.1-.7.6-1.1.7c-.4.2-.8.3-1.3.3s-.9,0-1.3-.3c-.4-.2-.8-.4-1.1-.7s-.5-.7-.7-1.1-.2-.8-.2-1.3V3.3c0-.4.1-.9.3-1.3.2-.4.4-.8.7-1.1.3-.3.7-.6,1.1-.7.4-.2.8-.3,1.3-.3s.9,0,1.3.3c.4.2.8.4,1.1.7.3.3.5.7.7,1.1.2.4.2.8.2,1.3v13.7h0Z"/>
      <path class="st0" d="M16.2,20c.8-.4,1.6-.5,2.5-.3.8.2,1.5.8,2,1.5.4.8.5,1.6.3,2.5-.2.8-.8,1.5-1.5,2l-11.9,6.8c-.8.4-1.6.5-2.5.3-.8-.2-1.5-.8-2-1.5-.4-.7-.5-1.6-.3-2.5.2-.8.8-1.5,1.5-2,0,0,11.9-6.8,11.9-6.8Z"/>
      <path class="st0" d="M19.5,20c.4.2.7.5,1,.8s.5.7.6,1.2c.1.4.1.9,0,1.3,0,.4-.2.8-.4,1.2-.2.4-.5.7-.9,1-.3.3-.7.5-1.2.6-.4.1-.9.1-1.3,0-.4,0-.8-.2-1.2-.4l-11.9-6.9c-.4-.2-.7-.5-1-.8s-.5-.7-.6-1.2c-.1-.4-.1-.9,0-1.3,0-.4.2-.8.4-1.2.2-.4.5-.7.9-1,.3-.3.7-.5,1.2-.6.4-.1.9-.1,1.3,0,.4,0,.8.2,1.2.4,0,0,11.9,6.9,11.9,6.9Z"/>
      <path class="st0" d="M59.5,44.4h-2.7v-17.1h4.6c1.9,0,3.8.6,5.2,1.9.6.6,1.2,1.3,1.6,2.1.4.8.6,1.7.6,2.6s-.2,1.7-.6,2.6c-.4.8-.9,1.6-1.6,2.1-1.4,1.3-3.3,2-5.2,1.9h-1.9s0,3.9,0,3.9ZM59.5,38.1h1.9c1.2,0,2.4-.5,3.3-1.2.5-.4.8-.8,1-1.4.3-.6.4-1.1.4-1.7s0-1.1-.4-1.7-.6-1-1-1.4c-.9-.8-2.1-1.3-3.3-1.3h-1.9v8.5h0Z"/>
      <path class="st0" d="M81.2,44.4h-11v-17.1h2.6v14.8h8.5v2.4h0Z"/>
      <path class="st0" d="M93.7,42.2h-7.6l-.9,2.1h-2.8l7.6-17.2,7.6,17.2h-2.8l-.9-2.1h0ZM92.6,39.9l-2.8-6.2-2.8,6.2h5.5Z"/>
      <path class="st0" d="M112.5,44.4l-11.2-11.2v11.2h-2.6v-17.1l11.2,11v-11h2.6v17.1Z"/>
      <path class="st0" d="M116.4,29.6v8h6.4v2.4h-6.4v2.1h8.4v2.4h-10.9v-17.1h10.9v2.3h-8.4Z"/>
      <path class="st0" d="M138,29.6h-4.6v14.8h-2.6v-14.8h-4.6v-2.4h11.8v2.4h0Z"/>
      <path class="st0" d="M142.1,29.6v8h6.4v2.4h-6.4v2.1h8.4v2.4h-10.9v-17.1h10.9v2.3h-8.4Z"/>
      <path class="st0" d="M69.7,51.8c-.6-.6-1.3-.9-2-1.2-1.8-.6-3.7-.6-5.4,0-.8.3-1.6.8-2.2,1.4s-1.1,1.3-1.5,2c-.4.7-.6,1.7-.6,2.5s.2,1.7.6,2.5c.4.7.9,1.5,1.5,2,.6.6,1.4,1,2.2,1.4,1.8.6,3.7.6,5.4,0,.7-.3,1.4-.6,2-1.2l1.8,1.6c-.8.7-1.8,1.3-2.9,1.7-1.2.5-2.4.6-3.7.6s-2.5-.2-3.7-.6c-1.1-.5-2.1-1-3-1.8-.8-.7-1.6-1.7-2-2.8-.5-1-.7-2.2-.7-3.3s.3-2.3.7-3.3,1.2-1.9,2-2.8c.9-.8,1.9-1.4,3-1.8,1.2-.5,2.4-.6,3.7-.6s2.5.2,3.7.6c1,.4,2,.9,2.9,1.7,0,0-1.8,1.6-1.8,1.6Z"/>
      <path class="st0" d="M74.8,63.8c-.6-.5-1-1-1.4-1.7-.3-.6-.5-1.4-.5-2h2.6c0,.4,0,.8.3,1.2.2.4.5.6.8.8.6.4,1.3.6,2,.6s1.7-.2,2.4-.6c.3-.2.6-.5.7-.8s.3-.6.3-1,0-.5-.2-.7c0-.2-.3-.4-.5-.6-.8-.6-1.8-1-3-1-1.7,0-3.2-.7-4.5-1.8-.4-.4-.7-.8-.9-1.4s-.4-1-.4-1.6c0-1.3.5-2.5,1.3-3.5.6-.6,1.3-1.1,2-1.5.7-.3,1.7-.5,2.5-.5,1.6,0,3.1.5,4.4,1.6.6.6,1,1.2,1.3,1.9.3.7.5,1.5.4,2.3h-2.6c0-.8-.3-1.8-.8-2.4-.4-.4-.8-.6-1.3-.8-.5-.2-1-.3-1.5-.2-.6,0-1.1,0-1.7.4-.5.3-.9.6-1.2,1.2-.3.5-.4,1-.5,1.6,0,.5.2.9.5,1.3.8.7,1.8,1.2,3,1.2,1.8,0,3.4.7,4.7,1.9.7.8,1.1,1.8,1.1,3s-.2,1.2-.5,1.8c-.3.6-.7,1-1.2,1.4-1.2.9-2.7,1.4-4.2,1.3-1.4,0-2.8-.4-3.9-1.2"/>
      <path class="st0" d="M100.5,51.8c-.6-.6-1.3-.9-2-1.2-1.8-.6-3.7-.6-5.4,0-.8.3-1.6.8-2.2,1.4s-1.1,1.3-1.5,2c-.4.7-.6,1.7-.6,2.5s.2,1.7.6,2.5c.4.7.9,1.5,1.5,2,.6.6,1.4,1,2.2,1.4,1.8.6,3.7.6,5.4,0,.7-.3,1.4-.6,2-1.2l1.8,1.6c-.8.7-1.8,1.3-2.9,1.7-1.2.5-2.4.6-3.7.6s-2.5-.2-3.7-.6c-1.1-.5-2.1-1-3-1.8-.8-.7-1.6-1.7-2-2.8-.5-1-.7-2.2-.7-3.3s.3-2.3.7-3.3,1.2-1.9,2-2.8c.9-.8,1.9-1.4,3-1.8,1.2-.5,2.4-.6,3.7-.6s2.5.2,3.7.6c1,.4,2,.9,2.9,1.7,0,0-1.8,1.6-1.8,1.6Z"/>
      <path class="st0" d="M114.8,62.9h-7.7l-.9,2.1h-2.9l7.7-17.3,7.7,17.3h-2.9l-.9-2.1h0ZM113.8,60.5l-2.8-6.3-2.8,6.3h5.5Z"/>
    </g>
  </g>
</svg>