<?xml version="1.0" encoding="UTF-8"?>
<svg id="Calque_1" xmlns="http://www.w3.org/2000/svg" version="1.1" viewBox="0 0 122.1 66">
  <!-- Generator: Adobe Illustrator 29.0.1, SVG Export Plug-In . SVG Version: 2.1.0 Build 192)  -->
  <defs>
    <style>
      .st0 {
        fill: #fff;
      }
    </style>
  </defs>
  <g id="Calque_3">
    <g>
      <path class="st0" d="M92.5,26.3v19.2c0,.3-.1.4-.4.4s-.4-.1-.3-.3v-24.4c0-.2-.1-.5.1-.6.3-.1.6,0,.9.3,2,2.4,3.9,4.7,5.9,7.1,3.4,4.1,6.8,8.2,10.2,12.3l.2.2c.1-.2,0-.3,0-.5v-19c0-.3.1-.4.4-.4s.3.1.3.3v24.5c0,.7.1.5-.6.6-.3,0-.5-.1-.7-.4-4.3-5.2-8.6-10.4-13-15.6-.9-1.1-1.9-2.3-2.9-3.4,0,0-.1-.2-.2-.3h0c0,0,0,0,0,0Z"/>
      <path class="st0" d="M21.9,33.3v-12.4c0-.2,0-.3.3-.3h13.8c.4,0,.6.2.4.6,0,.1-.1.1-.2.1h-10.4c-.2,0-.3,0-.3.3v10.3c0,.3.1.4.4.4h8.6c.1,0,.3,0,.4,0s0,.3,0,.5,0,.1-.1.1h-8.8c-.5,0-.4,0-.4.4v11.6c0,.2,0,.3.3.3h10.2c.1,0,.3,0,.4,0s0,.3,0,.5,0,.1-.1.1h-13.9c-.5,0-.4,0-.4-.4v-12.3h0Z"/>
      <path class="st0" d="M1.9,39.8c0,.6.3,1.2.5,1.7,1.1,2.5,3.6,4.1,6.3,4,2.8,0,5.3-1.8,6.3-4.3,0,0,0-.2.1-.3,0-.2,0-.3-.1-.4,0,0-.1,0-.1-.1-3.6-3.1-7.2-6.2-10.9-9.3,0,0-.2-.2-.3-.2-2.3-1.4-3.4-5.8-.6-8.5,3.3-3.2,9.1-3,11.9,1.3,0,0,0,0,0,.1,0,0,0,0,0,.1-.3.2-.6.2-.8-.1-1.5-2-3.5-3-6-2.9-2.4.2-4.2,1.3-5.4,3.3-.3.5-.3.4.1.7,3.7,3.1,7.4,6.2,11,9.3.5.4,1,.8,1.4,1.3.9,1.3,1.1,2.7.9,4.2-.5,3.3-3.1,5.7-6.2,6.4-3.7.7-7.7-1.7-8.6-5.4,0-.5,0-.8.6-1.1h0c0,0,0,0,0,0Z"/>
      <path class="st0" d="M119.4,45.9h-3.4c-.2,0-.3,0-.3-.3v-24.5c0-.7,0-.6.6-.6h2.6c.5,0,.5,0,.5.5h0v24.9h0Z"/>
      <path class="st0" d="M51.8,32.9c.2,0,.4,0,.6-.1,2.8-.5,4.9-3,5-5.8.1-3.5-2.7-6.5-6.2-6.5h-8.4c-.6,0-.6-.1-.6.6v24.5c0,.2.1.3.3.3h2.9c.1,0,.3,0,.4,0v-12.7c0-.2,0-.3.3-.3h1.3c.3,0,.5,0,.6.4.9,2,1.8,4,2.7,5.9,1,2.1,2,4.3,2.9,6.4.1.3.2.3.5.3h3.3c1.1,0,.2,0,.3,0-2-4.3-4-8.6-6-12.9h0ZM46.2,32.1c-.5,0-.4,0-.4-.5v-10c0-.4,0-.4.4-.4h5.3c.7,0,1.3.2,1.9.4.3.1.4.3.4.6v8.9c0,.3,0,.4-.3.6-.7.3-1.5.5-2.2.5h-5Z"/>
      <path class="st0" d="M85.6,30c-.7-3.2-2.5-5.9-5.2-7.8-2.6-1.8-5.4-2.3-8.4-1.7-2.3.5-4.3,1.7-5.9,3.4-2.5,2.6-3.6,5.8-3.6,9.3s0,1.8.2,2.7c.6,3.2,2.2,6,4.8,8,2.9,2.2,6.1,2.9,9.6,2,2.9-.8,5.2-2.6,6.8-5.2,2.1-3.3,2.6-7,1.7-10.8h0ZM81.7,42.3c-1.5,1.5-3.3,2.6-5.4,3.1-2.7.5-5.1,0-7.4-1.4-.8-.5-1.5-1.1-2.1-1.7s-.3-.4-.3-.6v-16.7c0-.2,0-.4.2-.6,1.6-1.6,3.4-2.8,5.7-3.2,2.9-.6,5.6,0,8,1.8.5.4,1,.8,1.5,1.3.2.2.3.4.3.7v16.6c0,.3,0,.5-.3.7h0c0,0,0,0,0,0Z"/>
    </g>
    <path class="st0" d="M61.5,0h57.4c.4,0,.6.2.6.6,0,4.9,0-1.2,0,3.7-.1,8.6,0,2.4,0,11v.3c0,.1,0,.2-.2.2h0c-.6,0-.9-.2-.9-.8V1.8c0-.4-.2-.6-.6-.6H5.4c-.4,0-.6.2-.6.6v13.4c0,.7.1.6-.6.6h-.1c-.5,0-.5,0-.5-.5V5.7c0-5.3,0,.3,0-5v-.3C3.6,0,3.6,0,3.9,0h57.6,0Z"/>
    <path class="st0" d="M61.1,65.8H3.7c-.4,0-.6-.2-.6-.6,0-4.9,0,1.2,0-3.7.1-8.6,0-2.4,0-11v-.3c0-.1,0-.2.2-.2h0c.6,0,.9.2.9.8v13.1c0,.4.2.6.6.6h112.4c.4,0,.6-.2.6-.6v-13.4c0-.7-.1-.6.6-.6h.1c.5,0,.5,0,.5.5v9.5c0,5.3,0-.3,0,5v.3c0,.4,0,.4-.4.4h-57.6,0Z"/>
  </g>
</svg>