<svg width="135" height="132" viewBox="0 0 135 132" fill="none" xmlns="http://www.w3.org/2000/svg">
<path d="M103.635 80.8147C108.083 77.9644 112.142 74.3895 115.618 70.0914C133.002 48.6013 129.294 17.387 107.33 0.357372L82.6628 30.8193C79.7504 26.4886 76.1097 22.5252 71.7179 19.1318C49.7538 2.10221 17.8431 5.71499 0.459338 27.2052L31.5353 51.2862C27.0872 54.1365 23.0289 57.7114 19.5521 62.0095C2.16843 83.4996 5.87626 114.714 27.8402 131.744L52.4948 101.283C55.4073 105.613 59.0479 109.577 63.4397 112.97C85.4038 130 117.314 126.374 134.698 104.897L103.635 80.8147Z" fill="#DCC8F5"/>
</svg>
