<svg width="24" height="24" viewBox="0 0 24 24" fill="none" xmlns="http://www.w3.org/2000/svg">
<path d="M12.7002 19.3001L19.3002 12.7001C19.4002 12.6001 19.4712 12.4917 19.5132 12.3751C19.5545 12.2584 19.5752 12.1334 19.5752 12.0001C19.5752 11.8667 19.5545 11.7417 19.5132 11.6251C19.4712 11.5084 19.4002 11.4001 19.3002 11.3001L12.7002 4.70008C12.5169 4.51675 12.2879 4.42075 12.0132 4.41208C11.7379 4.40408 11.5002 4.50008 11.3002 4.70008C11.1002 4.88342 10.9959 5.11242 10.9872 5.38708C10.9792 5.66242 11.0752 5.90008 11.2752 6.10008L16.1752 11.0001H5.00019C4.71686 11.0001 4.4792 11.0957 4.2872 11.2871C4.09586 11.4791 4.00019 11.7167 4.00019 12.0001C4.00019 12.2834 4.09586 12.5207 4.2872 12.7121C4.4792 12.9041 4.71686 13.0001 5.00019 13.0001H16.1752L11.2752 17.9001C11.0919 18.0834 10.9959 18.3167 10.9872 18.6001C10.9792 18.8834 11.0752 19.1167 11.2752 19.3001C11.4585 19.5001 11.6919 19.6001 11.9752 19.6001C12.2585 19.6001 12.5002 19.5001 12.7002 19.3001Z" fill="white"/>
</svg>
