<svg width="41" height="40" viewBox="0 0 41 40" fill="none" xmlns="http://www.w3.org/2000/svg">
<path d="M20.4999 3.33331C29.7049 3.33331 37.1666 10.795 37.1666 20C37.1666 29.205 29.7049 36.6666 20.4999 36.6666C11.2949 36.6666 3.83325 29.205 3.83325 20C3.83325 10.795 11.2949 3.33331 20.4999 3.33331ZM20.4999 6.66665C16.9637 6.66665 13.5723 8.0714 11.0718 10.5719C8.57134 13.0724 7.16659 16.4638 7.16659 20C7.16659 23.5362 8.57134 26.9276 11.0718 29.4281C13.5723 31.9286 16.9637 33.3333 20.4999 33.3333C24.0361 33.3333 27.4275 31.9286 29.928 29.4281C32.4285 26.9276 33.8333 23.5362 33.8333 20C33.8333 16.4638 32.4285 13.0724 29.928 10.5719C27.4275 8.0714 24.0361 6.66665 20.4999 6.66665ZM20.4999 9.99998C20.9081 10 21.3021 10.1499 21.6072 10.4212C21.9123 10.6924 22.1072 11.0662 22.1549 11.4716L22.1666 11.6666V19.31L26.6783 23.8216C26.9772 24.1216 27.1507 24.524 27.1636 24.9473C27.1766 25.3705 27.0279 25.7828 26.7478 26.1004C26.4678 26.4181 26.0773 26.6172 25.6558 26.6573C25.2343 26.6975 24.8132 26.5757 24.4783 26.3166L24.3216 26.1783L19.3216 21.1783C19.0626 20.9191 18.8962 20.5816 18.8483 20.2183L18.8333 20V11.6666C18.8333 11.2246 19.0088 10.8007 19.3214 10.4881C19.634 10.1756 20.0579 9.99998 20.4999 9.99998Z" fill="black"/>
</svg>
