<svg width="22" height="36" viewBox="0 0 22 36" fill="none" xmlns="http://www.w3.org/2000/svg">
<path d="M16.7951 19.4833L19.3201 33.6933C19.3484 33.8607 19.3249 34.0326 19.2528 34.1863C19.1807 34.3399 19.0634 34.4678 18.9166 34.553C18.7698 34.6382 18.6006 34.6765 18.4314 34.6629C18.2623 34.6492 18.1013 34.5843 17.9701 34.4767L12.0034 29.9983C11.7154 29.7831 11.3655 29.6669 11.0059 29.6669C10.6464 29.6669 10.2964 29.7831 10.0084 29.9983L4.03174 34.475C3.90061 34.5824 3.73984 34.6472 3.5709 34.6609C3.40195 34.6746 3.23286 34.6364 3.08618 34.5515C2.9395 34.4665 2.8222 34.3389 2.74994 34.1856C2.67768 34.0322 2.65389 33.8605 2.68174 33.6933L5.20507 19.4833" stroke="black" stroke-width="2" stroke-linecap="round" stroke-linejoin="round"/>
<path d="M11 21.3333C16.5228 21.3333 21 16.8562 21 11.3333C21 5.81047 16.5228 1.33331 11 1.33331C5.47715 1.33331 1 5.81047 1 11.3333C1 16.8562 5.47715 21.3333 11 21.3333Z" stroke="black" stroke-width="2" stroke-linecap="round" stroke-linejoin="round"/>
</svg>
