<svg width="41" height="40" viewBox="0 0 41 40" fill="none" xmlns="http://www.w3.org/2000/svg">
<path d="M25.5 20C25.5 21.3261 24.9732 22.5979 24.0355 23.5355C23.0979 24.4732 21.8261 25 20.5 25C19.1739 25 17.9021 24.4732 16.9645 23.5355C16.0268 22.5979 15.5 21.3261 15.5 20C15.5 18.6739 16.0268 17.4021 16.9645 16.4645C17.9021 15.5268 19.1739 15 20.5 15C21.8261 15 23.0979 15.5268 24.0355 16.4645C24.9732 17.4021 25.5 18.6739 25.5 20Z" stroke="black" stroke-width="2" stroke-linecap="round" stroke-linejoin="round"/>
<path d="M3.83325 20C6.49992 13.1716 12.7266 8.33331 20.4999 8.33331C28.2733 8.33331 34.4999 13.1716 37.1666 20C34.4999 26.8283 28.2733 31.6666 20.4999 31.6666C12.7266 31.6666 6.49992 26.8283 3.83325 20Z" stroke="black" stroke-width="2" stroke-linecap="round" stroke-linejoin="round"/>
</svg>
