<svg width="31" height="32" viewBox="0 0 31 32" fill="none" xmlns="http://www.w3.org/2000/svg">
<path d="M29.0353 25.8281C28.2984 24.0827 27.229 22.4973 25.8868 21.1602C24.5487 19.8192 22.9635 18.75 21.2188 18.0117C21.2032 18.0039 21.1876 18 21.172 17.9922C23.6056 16.2344 25.1876 13.3711 25.1876 10.1406C25.1876 4.78906 20.8517 0.453125 15.5001 0.453125C10.1485 0.453125 5.8126 4.78906 5.8126 10.1406C5.8126 13.3711 7.39463 16.2344 9.82822 17.9961C9.8126 18.0039 9.79697 18.0078 9.78135 18.0156C8.03135 18.7539 6.46104 19.8125 5.11338 21.1641C3.77238 22.5022 2.70321 24.0874 1.96494 25.832C1.23964 27.5401 0.848465 29.3713 0.812598 31.2266C0.811555 31.2683 0.818868 31.3097 0.834105 31.3486C0.849342 31.3874 0.872195 31.4228 0.901318 31.4526C0.930441 31.4825 0.965244 31.5062 1.00368 31.5224C1.04211 31.5386 1.08339 31.5469 1.1251 31.5469H3.46885C3.64072 31.5469 3.77744 31.4102 3.78135 31.2422C3.85947 28.2266 5.07041 25.4023 7.21103 23.2617C9.42588 21.0469 12.3673 19.8281 15.5001 19.8281C18.6329 19.8281 21.5743 21.0469 23.7892 23.2617C25.9298 25.4023 27.1407 28.2266 27.2188 31.2422C27.2228 31.4141 27.3595 31.5469 27.5313 31.5469H29.8751C29.9168 31.5469 29.9581 31.5386 29.9965 31.5224C30.035 31.5062 30.0698 31.4825 30.0989 31.4526C30.128 31.4228 30.1509 31.3874 30.1661 31.3486C30.1813 31.3097 30.1886 31.2683 30.1876 31.2266C30.1485 29.3594 29.7618 27.543 29.0353 25.8281ZM15.5001 16.8594C13.7071 16.8594 12.0196 16.1602 10.7501 14.8906C9.48057 13.6211 8.78135 11.9336 8.78135 10.1406C8.78135 8.34766 9.48057 6.66016 10.7501 5.39062C12.0196 4.12109 13.7071 3.42188 15.5001 3.42188C17.2931 3.42188 18.9806 4.12109 20.2501 5.39062C21.5196 6.66016 22.2188 8.34766 22.2188 10.1406C22.2188 11.9336 21.5196 13.6211 20.2501 14.8906C18.9806 16.1602 17.2931 16.8594 15.5001 16.8594Z" fill="black"/>
</svg>
