<svg width="40" height="40" viewBox="0 0 40 40" fill="none" xmlns="http://www.w3.org/2000/svg">
<path d="M18.3205 24.675C19.9958 23.5597 21.2677 21.9348 21.9482 20.0407C22.6286 18.1466 22.6814 16.0838 22.0988 14.1574C21.5162 12.2309 20.3291 10.5431 18.7131 9.3435C17.097 8.1439 15.1378 7.49622 13.1252 7.49622C11.1126 7.49622 9.15339 8.1439 7.53734 9.3435C5.9213 10.5431 4.7342 12.2309 4.15159 14.1574C3.56898 16.0838 3.6218 18.1466 4.30223 20.0407C4.98266 21.9348 6.25457 23.5597 7.92989 24.675C4.89941 25.792 2.3113 27.8588 0.551762 30.5672C0.459287 30.7047 0.395053 30.8591 0.362795 31.0216C0.330537 31.1841 0.330899 31.3514 0.363858 31.5137C0.396817 31.676 0.461717 31.8302 0.554785 31.9673C0.647853 32.1043 0.767233 32.2215 0.905985 32.312C1.04474 32.4025 1.20009 32.4645 1.36302 32.4944C1.52596 32.5244 1.69321 32.5216 1.85507 32.4863C2.01693 32.451 2.17016 32.3839 2.30585 32.2889C2.44155 32.1939 2.55701 32.0729 2.64551 31.9328C3.7805 30.1872 5.33357 28.7527 7.16369 27.7597C8.99382 26.7666 11.043 26.2465 13.1252 26.2465C15.2074 26.2465 17.2566 26.7666 19.0867 27.7597C20.9168 28.7527 22.4699 30.1872 23.6049 31.9328C23.7882 32.2053 24.0714 32.3947 24.3933 32.4601C24.7151 32.5254 25.0498 32.4614 25.3249 32.282C25.6 32.1026 25.7934 31.8221 25.8633 31.5012C25.9333 31.1804 25.8741 30.8448 25.6986 30.5672C23.9391 27.8588 21.351 25.792 18.3205 24.675ZM6.2502 16.875C6.2502 15.5153 6.65341 14.1861 7.40885 13.0555C8.16428 11.9249 9.23801 11.0437 10.4943 10.5233C11.7505 10.003 13.1328 9.86685 14.4664 10.1321C15.8001 10.3974 17.0251 11.0522 17.9866 12.0137C18.948 12.9751 19.6028 14.2002 19.8681 15.5338C20.1334 16.8674 19.9972 18.2497 19.4769 19.506C18.9565 20.7622 18.0753 21.8359 16.9447 22.5914C15.8142 23.3468 14.4849 23.75 13.1252 23.75C11.3025 23.748 9.55499 23.023 8.26612 21.7341C6.97726 20.4452 6.25227 18.6977 6.2502 16.875ZM39.0846 32.2969C38.8069 32.478 38.4687 32.5413 38.1443 32.473C37.82 32.4048 37.536 32.2105 37.3549 31.9328C36.2213 30.1861 34.6684 28.751 32.8379 27.7584C31.0074 26.7658 28.9575 26.2472 26.8752 26.25C26.5437 26.25 26.2257 26.1183 25.9913 25.8839C25.7569 25.6495 25.6252 25.3315 25.6252 25C25.6252 24.6685 25.7569 24.3506 25.9913 24.1161C26.2257 23.8817 26.5437 23.75 26.8752 23.75C27.8877 23.7491 28.8874 23.5245 29.803 23.0924C30.7186 22.6603 31.5275 22.0313 32.1718 21.2503C32.8161 20.4693 33.28 19.5557 33.5303 18.5747C33.7806 17.5936 33.8111 16.5694 33.6197 15.5753C33.4283 14.5811 33.0197 13.6414 32.423 12.8235C31.8264 12.0055 31.0564 11.3294 30.1682 10.8435C29.2799 10.3576 28.2954 10.0739 27.2848 10.0126C26.2742 9.95135 25.2625 10.114 24.3221 10.4891C24.1687 10.5554 24.0037 10.5902 23.8366 10.5917C23.6696 10.5931 23.504 10.561 23.3495 10.4973C23.1951 10.4336 23.055 10.3396 22.9375 10.2209C22.82 10.1021 22.7275 9.96104 22.6655 9.80594C22.6034 9.65084 22.5731 9.48488 22.5763 9.31786C22.5795 9.15084 22.6161 8.98616 22.684 8.83354C22.7519 8.68092 22.8497 8.54346 22.9717 8.42928C23.0936 8.3151 23.2372 8.22652 23.394 8.16877C25.5462 7.31041 27.9401 7.27952 30.1139 8.08206C32.2876 8.8846 34.0871 10.4637 35.1652 12.5147C36.2433 14.5658 36.5237 16.9434 35.9522 19.189C35.3808 21.4345 33.9979 23.3889 32.0705 24.675C35.101 25.792 37.6891 27.8588 39.4486 30.5672C39.6297 30.8449 39.6931 31.1831 39.6248 31.5074C39.5565 31.8318 39.3622 32.1158 39.0846 32.2969Z" fill="black"/>
</svg>
