<svg width="40" height="41" viewBox="0 0 40 41" fill="none" xmlns="http://www.w3.org/2000/svg">
<path d="M20.0002 3.8335C29.2052 3.8335 36.6668 11.2952 36.6668 20.5002C36.6668 29.7052 29.2052 37.1668 20.0002 37.1668C10.7952 37.1668 3.3335 29.7052 3.3335 20.5002C3.3335 11.2952 10.7952 3.8335 20.0002 3.8335ZM20.0002 7.16683C16.4639 7.16683 13.0726 8.57159 10.5721 11.0721C8.07159 13.5726 6.66683 16.9639 6.66683 20.5002C6.66683 24.0364 8.07159 27.4278 10.5721 29.9283C13.0726 32.4287 16.4639 33.8335 20.0002 33.8335C23.5364 33.8335 26.9278 32.4287 29.4283 29.9283C31.9287 27.4278 33.3335 24.0364 33.3335 20.5002C33.3335 16.9639 31.9287 13.5726 29.4283 11.0721C26.9278 8.57159 23.5364 7.16683 20.0002 7.16683ZM20.0002 10.5002C20.4084 10.5002 20.8024 10.6501 21.1075 10.9214C21.4125 11.1926 21.6074 11.5664 21.6552 11.9718L21.6668 12.1668V19.8102L26.1785 24.3218C26.4774 24.6218 26.651 25.0242 26.6639 25.4475C26.6768 25.8707 26.5281 26.283 26.2481 26.6006C25.968 26.9182 25.5776 27.1173 25.156 27.1575C24.7345 27.1977 24.3135 27.0758 23.9785 26.8168L23.8218 26.6785L18.8218 21.6785C18.5628 21.4192 18.3964 21.0818 18.3485 20.7185L18.3335 20.5002V12.1668C18.3335 11.7248 18.5091 11.3009 18.8217 10.9883C19.1342 10.6758 19.5581 10.5002 20.0002 10.5002Z" fill="black"/>
</svg>
