<svg width="40" height="41" viewBox="0 0 40 41" fill="none" xmlns="http://www.w3.org/2000/svg">
<path d="M25.7951 21.9834L28.3201 36.1934C28.3484 36.3607 28.3249 36.5327 28.2528 36.6863C28.1807 36.8399 28.0634 36.9679 27.9166 37.0531C27.7698 37.1382 27.6006 37.1766 27.4314 37.1629C27.2623 37.1493 27.1013 37.0843 26.9701 36.9767L21.0034 32.4984C20.7154 32.2832 20.3655 32.1669 20.0059 32.1669C19.6464 32.1669 19.2964 32.2832 19.0084 32.4984L13.0317 36.9751C12.9006 37.0825 12.7398 37.1473 12.5709 37.161C12.402 37.1746 12.2329 37.1364 12.0862 37.0515C11.9395 36.9666 11.8222 36.8389 11.7499 36.6856C11.6777 36.5323 11.6539 36.3606 11.6817 36.1934L14.2051 21.9834" stroke="black" stroke-width="2" stroke-linecap="round" stroke-linejoin="round"/>
<path d="M20 23.8335C25.5228 23.8335 30 19.3563 30 13.8335C30 8.31065 25.5228 3.8335 20 3.8335C14.4772 3.8335 10 8.31065 10 13.8335C10 19.3563 14.4772 23.8335 20 23.8335Z" stroke="black" stroke-width="2" stroke-linecap="round" stroke-linejoin="round"/>
</svg>
