<svg width="40" height="41" viewBox="0 0 40 41" fill="none" xmlns="http://www.w3.org/2000/svg">
<path d="M33.5353 30.3281C32.7984 28.5827 31.729 26.9973 30.3868 25.6602C29.0487 24.3192 27.4635 23.25 25.7188 22.5117C25.7032 22.5039 25.6876 22.5 25.672 22.4922C28.1056 20.7344 29.6876 17.8711 29.6876 14.6406C29.6876 9.28906 25.3517 4.95312 20.0001 4.95312C14.6485 4.95312 10.3126 9.28906 10.3126 14.6406C10.3126 17.8711 11.8946 20.7344 14.3282 22.4961C14.3126 22.5039 14.297 22.5078 14.2813 22.5156C12.5313 23.2539 10.961 24.3125 9.61338 25.6641C8.27238 27.0022 7.20321 28.5874 6.46494 30.332C5.73964 32.0401 5.34846 33.8713 5.3126 35.7266C5.31156 35.7683 5.31887 35.8097 5.3341 35.8486C5.34934 35.8874 5.3722 35.9228 5.40132 35.9526C5.43044 35.9825 5.46524 36.0062 5.50368 36.0224C5.54211 36.0386 5.58339 36.0469 5.6251 36.0469H7.96885C8.14072 36.0469 8.27744 35.9102 8.28135 35.7422C8.35947 32.7266 9.57041 29.9023 11.711 27.7617C13.9259 25.5469 16.8673 24.3281 20.0001 24.3281C23.1329 24.3281 26.0743 25.5469 28.2892 27.7617C30.4298 29.9023 31.6407 32.7266 31.7188 35.7422C31.7228 35.9141 31.8595 36.0469 32.0313 36.0469H34.3751C34.4168 36.0469 34.4581 36.0386 34.4965 36.0224C34.535 36.0062 34.5698 35.9825 34.5989 35.9526C34.628 35.9228 34.6509 35.8874 34.6661 35.8486C34.6813 35.8097 34.6886 35.7683 34.6876 35.7266C34.6485 33.8594 34.2618 32.043 33.5353 30.3281ZM20.0001 21.3594C18.2071 21.3594 16.5196 20.6602 15.2501 19.3906C13.9806 18.1211 13.2813 16.4336 13.2813 14.6406C13.2813 12.8477 13.9806 11.1602 15.2501 9.89062C16.5196 8.62109 18.2071 7.92188 20.0001 7.92188C21.7931 7.92188 23.4806 8.62109 24.7501 9.89062C26.0196 11.1602 26.7188 12.8477 26.7188 14.6406C26.7188 16.4336 26.0196 18.1211 24.7501 19.3906C23.4806 20.6602 21.7931 21.3594 20.0001 21.3594Z" fill="black"/>
</svg>
