<svg width="40" height="26" viewBox="0 0 40 26" fill="none" xmlns="http://www.w3.org/2000/svg">
<path d="M18.3205 17.1749C19.9958 16.0596 21.2677 14.4347 21.9482 12.5406C22.6286 10.6465 22.6814 8.58369 22.0988 6.65724C21.5162 4.7308 20.3291 3.04298 18.7131 1.84338C17.097 0.643782 15.1378 -0.00390625 13.1252 -0.00390625C11.1126 -0.00390625 9.15339 0.643782 7.53734 1.84338C5.9213 3.04298 4.7342 4.7308 4.15159 6.65724C3.56898 8.58369 3.6218 10.6465 4.30223 12.5406C4.98266 14.4347 6.25457 16.0596 7.92989 17.1749C4.89941 18.2918 2.3113 20.3587 0.551762 23.0671C0.459287 23.2045 0.395053 23.359 0.362795 23.5215C0.330537 23.684 0.330899 23.8512 0.363858 24.0136C0.396817 24.1759 0.461717 24.3301 0.554785 24.4671C0.647853 24.6042 0.767233 24.7214 0.905985 24.8119C1.04474 24.9024 1.20009 24.9644 1.36302 24.9943C1.52596 25.0242 1.69321 25.0215 1.85507 24.9862C2.01693 24.9509 2.17016 24.8838 2.30585 24.7888C2.44155 24.6938 2.55701 24.5727 2.64551 24.4327C3.7805 22.6871 5.33357 21.2526 7.16369 20.2596C8.99382 19.2665 11.043 18.7464 13.1252 18.7464C15.2074 18.7464 17.2566 19.2665 19.0867 20.2596C20.9168 21.2526 22.4699 22.6871 23.6049 24.4327C23.7882 24.7052 24.0714 24.8946 24.3933 24.9599C24.7151 25.0253 25.0498 24.9613 25.3249 24.7819C25.6 24.6025 25.7934 24.322 25.8633 24.0011C25.9333 23.6802 25.8741 23.3447 25.6986 23.0671C23.9391 20.3587 21.351 18.2918 18.3205 17.1749ZM6.2502 9.3749C6.2502 8.01515 6.65341 6.68594 7.40885 5.55535C8.16428 4.42476 9.23801 3.54358 10.4943 3.02323C11.7505 2.50287 13.1328 2.36673 14.4664 2.632C15.8001 2.89727 17.0251 3.55205 17.9866 4.51354C18.948 5.47502 19.6028 6.70003 19.8681 8.03365C20.1334 9.36727 19.9972 10.7496 19.4769 12.0058C18.9565 13.2621 18.0753 14.3358 16.9447 15.0913C15.8142 15.8467 14.4849 16.2499 13.1252 16.2499C11.3025 16.2478 9.55499 15.5228 8.26612 14.234C6.97726 12.9451 6.25227 11.1976 6.2502 9.3749ZM39.0846 24.7968C38.8069 24.9778 38.4687 25.0412 38.1443 24.9729C37.82 24.9046 37.536 24.7103 37.3549 24.4327C36.2213 22.686 34.6684 21.2509 32.8379 20.2583C31.0074 19.2657 28.9575 18.7471 26.8752 18.7499C26.5437 18.7499 26.2257 18.6182 25.9913 18.3838C25.7569 18.1494 25.6252 17.8314 25.6252 17.4999C25.6252 17.1684 25.7569 16.8504 25.9913 16.616C26.2257 16.3816 26.5437 16.2499 26.8752 16.2499C27.8877 16.2489 28.8874 16.0244 29.803 15.5923C30.7186 15.1601 31.5275 14.5311 32.1718 13.7502C32.8161 12.9692 33.28 12.0556 33.5303 11.0745C33.7806 10.0935 33.8111 9.06932 33.6197 8.07513C33.4283 7.08094 33.0197 6.14129 32.423 5.32333C31.8264 4.50537 31.0564 3.82929 30.1682 3.34339C29.2799 2.85749 28.2954 2.57377 27.2848 2.5125C26.2742 2.45123 25.2625 2.61393 24.3221 2.98896C24.1687 3.05524 24.0037 3.09012 23.8366 3.09154C23.6696 3.09295 23.504 3.06086 23.3495 2.99718C23.1951 2.9335 23.055 2.8395 22.9375 2.72076C22.82 2.60201 22.7275 2.46092 22.6655 2.30582C22.6034 2.15072 22.5731 1.98476 22.5763 1.81774C22.5795 1.65072 22.6161 1.48604 22.684 1.33342C22.7519 1.1808 22.8497 1.04333 22.9717 0.929155C23.0936 0.814976 23.2372 0.726395 23.394 0.668648C25.5462 -0.18971 27.9401 -0.220599 30.1139 0.581939C32.2876 1.38448 34.0871 2.96358 35.1652 5.01461C36.2433 7.06564 36.5237 9.44328 35.9522 11.6888C35.3808 13.9344 33.9979 15.8888 32.0705 17.1749C35.101 18.2918 37.6891 20.3587 39.4486 23.0671C39.6297 23.3447 39.6931 23.683 39.6248 24.0073C39.5565 24.3317 39.3622 24.6157 39.0846 24.7968Z" fill="black"/>
</svg>
