<svg width="40" height="41" viewBox="0 0 40 41" fill="none" xmlns="http://www.w3.org/2000/svg">
<path d="M25 20.5C25 21.8261 24.4732 23.0979 23.5355 24.0355C22.5979 24.9732 21.3261 25.5 20 25.5C18.6739 25.5 17.4021 24.9732 16.4645 24.0355C15.5268 23.0979 15 21.8261 15 20.5C15 19.1739 15.5268 17.9021 16.4645 16.9645C17.4021 16.0268 18.6739 15.5 20 15.5C21.3261 15.5 22.5979 16.0268 23.5355 16.9645C24.4732 17.9021 25 19.1739 25 20.5Z" stroke="black" stroke-width="2" stroke-linecap="round" stroke-linejoin="round"/>
<path d="M3.3335 20.5002C6.00016 13.6718 12.2268 8.8335 20.0002 8.8335C27.7735 8.8335 34.0002 13.6718 36.6668 20.5002C34.0002 27.3285 27.7735 32.1668 20.0002 32.1668C12.2268 32.1668 6.00016 27.3285 3.3335 20.5002Z" stroke="black" stroke-width="2" stroke-linecap="round" stroke-linejoin="round"/>
</svg>
